<?xml version="1.0" standalone="no"?>
<!DOCTYPE svg PUBLIC "-//W3C//DTD SVG 20010904//EN"
 "http://www.w3.org/TR/2001/REC-SVG-20010904/DTD/svg10.dtd">
<svg version="1.0" xmlns="http://www.w3.org/2000/svg"
 width="225.000000pt" height="225.000000pt" viewBox="0 0 225.000000 225.000000"
 preserveAspectRatio="xMidYMid meet">

<g transform="translate(0.000000,225.000000) scale(0.100000,-0.100000)"
fill="#000000" stroke="none">
<path d="M280 2229 c-32 -20 -33 -22 -15 -35 10 -8 22 -14 26 -14 7 0 31 61
26 66 -2 2 -18 -6 -37 -17z"/>
<path d="M355 2239 c-12 -19 3 -22 27 -5 l22 16 -21 0 c-12 0 -25 -5 -28 -11z"/>
<path d="M766 2214 c-9 -20 -15 -38 -14 -40 2 -2 26 7 52 19 l49 23 -26 17
c-36 24 -41 22 -61 -19z"/>
<path d="M858 2238 c8 -8 20 -8 44 -1 l33 11 -44 1 c-34 1 -42 -2 -33 -11z"/>
<path d="M667 2185 l-39 -22 31 -11 c42 -15 56 -8 58 28 3 35 0 35 -50 5z"/>
<path d="M181 2158 c-33 -29 -33 -31 -16 -44 25 -18 24 -18 65 16 34 28 35 29
15 44 -26 20 -25 20 -64 -16z"/>
<path d="M925 2184 c-11 -2 -60 -14 -109 -25 -99 -23 -209 -70 -283 -120 -252
-170 -429 -374 -508 -583 l-25 -66 0 -529 c0 -487 2 -538 21 -649 11 -67 26
-141 32 -164 l13 -43 339 -2 340 -2 -49 19 c-53 21 -146 80 -146 93 0 4 -12 8
-27 8 -16 1 -4 5 26 10 29 5 74 19 100 31 l46 22 -50 6 c-67 8 -103 29 -163
95 -65 71 -106 154 -107 220 0 28 -4 61 -9 74 l-8 24 30 -22 c45 -32 51 -27
35 32 -22 85 2 177 67 250 36 41 55 48 45 16 -4 -12 -1 -27 9 -37 10 -12 12
-22 6 -32 -13 -20 -12 -67 1 -76 6 -3 8 -17 5 -30 -4 -13 1 -38 11 -58 14 -31
19 -34 37 -24 12 6 22 12 24 13 2 2 -6 18 -17 36 -12 19 -21 41 -21 50 0 9 -9
19 -20 22 -22 6 -27 41 -10 67 13 20 46 -1 42 -26 -7 -39 -1 -67 19 -104 l21
-37 53 15 c63 18 75 37 75 120 0 41 -7 68 -23 97 l-24 41 25 2 c21 2 23 0 12
-13 -10 -12 -9 -15 5 -15 11 0 15 -5 11 -15 -3 -9 0 -15 9 -15 8 0 15 -4 15
-10 0 -5 -5 -10 -11 -10 -7 0 -9 -16 -4 -48 3 -26 2 -60 -4 -75 -13 -33 -5
-34 34 -2 29 24 30 28 30 102 0 43 -3 90 -8 105 -7 26 -6 27 18 18 57 -22 3
39 -57 64 -88 37 -209 29 -294 -20 -54 -31 -130 -116 -162 -182 -15 -28 -29
-52 -33 -52 -3 0 -12 34 -19 75 -12 69 -11 78 6 112 27 54 142 166 193 189
l42 19 -4 102 c-3 58 -1 100 4 97 5 -3 9 -16 9 -29 0 -12 9 -53 21 -90 l20
-66 37 22 c159 96 359 193 463 225 l46 14 -9 67 c-5 38 -20 113 -33 167 -14
55 -23 102 -21 104 6 5 70 -196 88 -271 l13 -59 35 6 c78 14 279 26 334 20
l59 -7 -6 69 c-6 74 3 65 27 -26 l12 -45 95 -12 c78 -10 247 -47 254 -56 8 -8
54 -106 60 -127 l7 -25 -28 27 c-57 53 -119 73 -229 73 -92 0 -103 -2 -142
-27 -46 -30 -90 -90 -116 -155 -20 -51 -10 -56 17 -10 15 25 20 28 23 15 3
-11 14 -18 29 -18 16 0 24 -6 24 -17 0 -14 2 -15 9 -5 11 18 12 18 39 3 21
-11 22 -10 22 18 0 25 5 32 26 37 38 10 69 -9 100 -61 22 -39 25 -51 17 -78
-7 -26 -14 -33 -39 -35 -25 -2 -37 4 -63 33 -17 20 -31 43 -31 53 -1 15 -2 15
-11 -1 -17 -29 -2 -63 44 -100 42 -35 43 -35 92 -24 l50 12 -6 61 c-3 37 -14
75 -27 96 -26 42 -27 48 -7 48 8 0 15 -7 15 -15 0 -8 0 -17 0 -20 1 -2 10 -24
20 -47 11 -24 20 -63 20 -87 0 -35 3 -42 16 -37 9 3 31 6 49 6 l33 0 -9 41
c-20 89 -58 146 -134 202 l-40 30 34 -7 c53 -10 121 -48 146 -81 29 -39 48
-99 43 -136 -3 -16 -3 -29 -1 -29 1 0 12 19 24 41 l21 41 24 -52 c13 -28 24
-65 24 -81 0 -55 -22 -128 -55 -183 -18 -31 -29 -56 -23 -56 5 0 36 27 68 59
l58 59 22 -75 c27 -90 23 -120 -23 -217 -67 -139 -225 -281 -401 -362 l-56
-26 20 -25 c12 -15 20 -42 21 -67 1 -37 2 -38 8 -11 l6 30 23 -33 c24 -33 52
-43 52 -18 0 8 -4 18 -10 21 -5 3 -10 12 -10 18 0 7 10 -3 21 -21 19 -29 26
-32 67 -32 50 0 66 6 75 30 4 11 6 10 6 -5 1 -17 3 -17 11 -5 9 13 10 13 10 0
0 -13 1 -13 10 0 8 12 10 12 16 -3 5 -13 18 -17 58 -17 l53 0 -5 30 c-3 25 -1
29 12 24 10 -4 16 -1 16 7 0 20 29 -23 30 -43 0 -12 8 -18 25 -18 l25 0 0 624
0 625 -26 73 c-61 171 -158 312 -339 494 -159 160 -244 219 -410 283 -166 65
-244 82 -395 86 -74 2 -144 2 -155 -1z m347 -124 c6 0 7 -7 4 -16 -3 -8 -2
-13 2 -10 4 2 14 0 22 -6 12 -8 12 -9 -3 -4 -10 3 -20 0 -23 -9 -3 -7 -12 -11
-20 -8 -16 6 -19 -12 -4 -22 6 -3 10 -14 10 -23 -1 -15 -3 -14 -17 3 l-15 20
5 -20 c2 -11 8 -29 12 -40 3 -11 -8 5 -27 36 -18 31 -39 63 -46 72 -12 14 -10
17 15 22 15 4 33 8 38 10 6 2 16 2 23 -1 8 -2 18 -4 24 -4z m-169 -40 c9 -11
17 -25 17 -31 0 -6 7 -23 16 -39 11 -18 14 -34 9 -46 -7 -16 -9 -15 -16 11 -7
24 -7 20 -5 -19 3 -32 1 -44 -5 -35 -8 11 -12 10 -24 -5 -8 -11 -15 -27 -15
-35 0 -14 -2 -14 -10 -1 -6 9 -5 17 3 22 8 5 5 8 -9 8 -12 0 -25 10 -32 25
-12 26 -26 32 -37 15 -3 -5 -2 -10 3 -10 13 0 2 -60 -12 -61 -6 -1 -21 -3 -33
-4 -12 -1 -28 -5 -37 -8 -12 -5 -23 6 -41 41 -13 26 -34 61 -45 79 l-21 31 37
12 c34 12 38 11 56 -11 10 -13 28 -43 40 -67 15 -31 24 -40 32 -32 10 10 11
18 14 111 2 50 -2 46 92 68 3 0 13 -8 23 -19z m195 -22 c-2 -6 -10 -14 -16
-16 -7 -2 -10 2 -6 12 7 18 28 22 22 4z m-21 -80 c-3 -8 -6 -5 -6 6 -1 11 2
17 5 13 3 -3 4 -12 1 -19z m-479 -76 c26 -55 30 -73 23 -97 -6 -18 -10 -23
-10 -11 -1 14 -6 17 -23 12 -59 -16 -73 -18 -58 -7 13 9 13 11 -1 11 -9 0 -19
-7 -23 -15 -3 -8 -10 -15 -16 -15 -5 0 -10 7 -10 15 0 8 -7 15 -15 15 -18 0
-19 -12 -3 -28 13 -13 5 -27 -11 -17 -14 8 -14 42 0 120 10 59 13 63 52 83 27
14 45 18 53 11 6 -5 25 -39 42 -77z m372 38 c0 -5 -2 -10 -4 -10 -3 0 -8 5
-11 10 -3 6 -1 10 4 10 6 0 11 -4 11 -10z m-65 -60 c3 -5 1 -10 -4 -10 -6 0
-11 5 -11 10 0 6 2 10 4 10 3 0 8 -4 11 -10z m-570 -49 c-4 -17 -11 -31 -16
-31 -5 0 -7 -11 -3 -24 3 -13 1 -27 -5 -31 -7 -3 -11 -3 -10 2 1 4 1 17 0 27
-1 19 -1 19 -14 1 -13 -16 -14 -14 -13 19 1 29 8 41 31 56 35 23 39 21 30 -19z
m415 19 c-20 -13 -40 -13 -40 0 0 6 12 10 28 10 21 0 24 -2 12 -10z m-483 -62
c-4 -12 -2 -27 4 -34 6 -8 5 -13 -5 -17 -8 -3 -20 1 -26 9 -10 11 -9 19 4 39
20 31 30 32 23 3z m-96 -61 c-10 -9 -11 -8 -5 6 3 10 9 15 12 12 3 -3 0 -11
-7 -18z m1382 -454 c-7 -2 -19 -2 -25 0 -7 3 -2 5 12 5 14 0 19 -2 13 -5z m77
-22 c0 -12 -20 -25 -27 -18 -7 7 6 27 18 27 5 0 9 -4 9 -9z m-1121 -317 c15
-20 21 -41 21 -81 0 -70 -12 -93 -51 -93 -25 0 -33 6 -45 35 -43 104 16 214
75 139z"/>
<path d="M1238 2043 c7 -3 16 -2 19 1 4 3 -2 6 -13 5 -11 0 -14 -3 -6 -6z"/>
<path d="M1238 2023 c7 -3 16 -2 19 1 4 3 -2 6 -13 5 -11 0 -14 -3 -6 -6z"/>
<path d="M1210 2000 c0 -5 5 -10 11 -10 5 0 7 5 4 10 -3 6 -8 10 -11 10 -2 0
-4 -4 -4 -10z"/>
<path d="M750 1760 c19 -13 30 -13 30 0 0 6 -10 10 -22 10 -19 0 -20 -2 -8
-10z"/>
<path d="M558 2132 c-22 -9 -63 -62 -48 -62 10 0 109 39 119 47 15 11 -48 25
-71 15z"/>
<path d="M107 2082 c-24 -26 -22 -69 4 -83 30 -16 148 -7 160 12 16 25 10 31
-25 25 -46 -9 -86 2 -86 23 0 17 -18 41 -30 41 -4 0 -14 -8 -23 -18z"/>
<path d="M441 2089 c-23 -9 -23 -10 -6 -29 10 -11 20 -20 21 -20 2 0 10 14 19
30 17 33 10 37 -34 19z"/>
<path d="M343 2059 c-18 -5 -37 -18 -43 -29 -13 -24 -4 -25 69 -8 49 11 50 12
34 30 -18 20 -16 20 -60 7z"/>
<path d="M1608 1073 c-5 -18 1 -28 23 -44 23 -16 27 -24 19 -34 -20 -24 70
-82 93 -59 3 3 -7 17 -23 31 -16 13 -32 33 -35 43 -4 11 -14 20 -24 20 -21 0
-37 17 -43 45 -4 19 -4 19 -10 -2z"/>
<path d="M1960 900 c0 -5 5 -10 10 -10 6 0 10 5 10 10 0 6 -4 10 -10 10 -5 0
-10 -4 -10 -10z"/>
<path d="M1525 590 c-27 -30 -214 -87 -329 -100 -33 -4 -50 -8 -36 -10 51 -5
116 3 165 21 28 10 68 21 90 25 22 4 56 15 75 24 37 19 80 60 63 60 -5 0 -18
-9 -28 -20z"/>
<path d="M1633 73 c2 -10 -3 -31 -11 -48 -13 -27 -13 -29 2 -15 18 17 29 80
14 80 -5 0 -8 -8 -5 -17z"/>
</g>
</svg>
