<?xml version="1.0" standalone="no"?>
<!DOCTYPE svg PUBLIC "-//W3C//DTD SVG 20010904//EN"
 "http://www.w3.org/TR/2001/REC-SVG-20010904/DTD/svg10.dtd">
<svg version="1.0" xmlns="http://www.w3.org/2000/svg"
 width="850.000000pt" height="850.000000pt" viewBox="0 0 850.000000 850.000000"
 preserveAspectRatio="xMidYMid meet">

<g transform="translate(0.000000,850.000000) scale(0.100000,-0.100000)"
fill="#000000" stroke="none">
<path d="M0 8151 l0 -349 113 -6 c61 -4 445 -13 852 -21 823 -17 1095 -25
1095 -34 0 -10 -161 -126 -225 -162 -56 -32 -71 -35 -225 -51 -91 -9 -246 -17
-345 -18 -99 0 -241 -4 -315 -10 -74 -5 -252 -14 -395 -20 -143 -5 -326 -13
-407 -16 l-148 -7 0 -263 c0 -237 2 -263 17 -266 19 -4 236 7 448 21 83 6 225
13 318 17 205 7 209 0 45 -84 -56 -29 -105 -81 -211 -223 -42 -57 -106 -140
-142 -184 -67 -83 -243 -358 -263 -410 -16 -45 -24 -94 -52 -320 -10 -86 -40
-178 -76 -235 -45 -73 -85 -162 -82 -183 2 -16 17 5 51 73 27 52 53 99 58 104
12 13 11 3 -6 -124 -8 -58 -15 -133 -15 -168 0 -75 19 -202 31 -202 10 0 11
19 9 150 -1 84 21 288 65 610 42 300 32 269 131 431 65 108 127 194 234 329
42 52 102 131 134 174 32 44 70 90 84 103 26 24 125 79 337 187 66 34 127 66
135 71 22 15 100 34 138 35 25 0 32 -4 32 -19 0 -10 -7 -24 -15 -31 -22 -19
-87 -119 -83 -130 5 -15 52 33 97 98 34 49 87 121 286 398 32 45 84 85 271
215 65 45 151 106 189 135 66 49 180 129 303 210 88 59 233 106 432 139 91 16
469 101 730 165 193 47 187 47 221 15 16 -16 29 -35 29 -42 0 -7 3 -13 8 -13
4 0 18 -17 32 -37 31 -46 143 -178 185 -216 16 -16 54 -44 83 -64 l54 -35 119
36 c66 20 132 36 148 36 16 0 54 -13 85 -30 213 -114 198 -103 240 -179 20
-36 55 -95 77 -131 23 -36 44 -72 48 -80 17 -41 145 -220 157 -220 8 0 14 3
14 6 0 3 -34 57 -74 119 -100 152 -140 225 -130 234 5 5 61 14 124 20 131 14
102 21 335 -89 61 -29 168 -79 239 -112 71 -33 175 -90 230 -126 124 -82 126
-83 167 -106 19 -10 70 -41 114 -70 100 -64 110 -70 164 -104 24 -15 57 -38
74 -52 17 -14 101 -78 186 -142 86 -65 169 -128 185 -140 15 -13 49 -39 74
-58 25 -19 75 -69 110 -110 36 -41 86 -97 111 -124 25 -27 75 -84 111 -127 36
-42 99 -115 141 -161 42 -45 97 -119 121 -163 107 -189 200 -380 253 -520 32
-82 80 -208 107 -280 27 -71 53 -148 58 -170 10 -48 15 -419 5 -434 -10 -18
-61 -12 -88 10 -15 11 -31 38 -38 62 -11 42 -59 173 -85 234 -8 17 -14 36 -14
42 0 19 -59 131 -114 216 -29 44 -72 113 -96 153 -41 67 -70 91 -70 59 0 -8
48 -90 108 -183 59 -94 120 -203 135 -244 16 -41 40 -101 53 -133 13 -32 24
-69 24 -83 0 -27 -21 -32 -41 -8 -16 19 -77 51 -144 74 -72 26 -143 59 -150
70 -4 6 -29 22 -57 36 -39 20 -76 28 -152 35 -56 5 -177 16 -271 24 -118 11
-190 13 -235 7 -36 -5 -135 -20 -220 -32 l-155 -22 -85 -83 c-47 -46 -100 -95
-118 -110 -18 -15 -62 -73 -99 -128 -37 -56 -76 -112 -87 -125 -20 -23 -50
-70 -84 -132 -37 -67 -55 -228 -27 -237 10 -3 85 100 85 116 0 4 24 32 53 62
28 30 61 67 72 83 56 81 84 103 145 116 85 18 223 8 284 -20 110 -52 127 -138
43 -222 -42 -42 -131 -87 -211 -105 -74 -17 -76 -18 -149 -8 -75 10 -82 0 -52
-69 52 -118 134 -275 166 -318 19 -25 52 -71 74 -103 40 -57 110 -115 139
-115 22 0 20 9 -7 34 -13 11 -36 39 -52 61 -16 22 -35 46 -42 53 -7 7 -13 18
-13 23 0 6 -13 29 -29 52 -63 92 -131 247 -131 300 0 21 5 27 23 28 45 3 155
0 255 -6 96 -7 104 -9 114 -31 6 -13 14 -24 18 -24 4 0 12 -12 19 -26 20 -44
113 -145 153 -165 41 -21 109 -25 156 -8 44 15 62 48 62 117 0 47 -7 72 -35
128 -40 78 -42 94 -17 95 9 0 26 2 37 4 11 2 58 7 104 11 67 6 85 11 88 24 9
34 90 54 111 28 5 -7 27 -44 48 -83 63 -117 70 -129 95 -170 28 -47 55 -118
76 -200 19 -77 26 -90 49 -90 21 0 21 5 4 100 -38 207 -130 399 -341 712 -28
42 -28 43 -8 54 17 8 30 7 62 -9 66 -32 119 -51 162 -58 45 -8 51 -11 125 -74
78 -66 110 -113 103 -153 -3 -23 4 -53 22 -97 45 -107 74 -204 81 -274 6 -60
5 -67 -20 -96 -26 -32 -33 -50 -18 -50 4 0 13 8 19 17 7 10 28 41 48 68 19 28
47 67 62 88 18 26 28 55 31 93 2 30 8 57 12 59 17 10 37 -7 49 -43 8 -20 36
-83 62 -138 27 -56 49 -104 49 -107 0 -19 145 -314 180 -367 82 -125 117 -211
159 -395 l40 -180 -10 -187 c-8 -162 -15 -210 -48 -352 -34 -145 -47 -181
-108 -303 -137 -272 -118 -246 -386 -518 -136 -138 -282 -280 -323 -315 -78
-65 -121 -102 -183 -156 -39 -34 -159 -98 -591 -316 -151 -76 -284 -148 -295
-159 -18 -18 -19 -22 -5 -46 19 -32 32 -29 45 11 9 27 17 33 67 45 46 12 64
12 97 2 36 -10 41 -15 41 -43 0 -27 -3 -30 -26 -25 -22 4 -28 0 -36 -24 l-10
-29 -72 6 c-39 3 -87 7 -106 8 -47 4 -187 8 -228 7 -22 -1 -32 -5 -30 -13 5
-14 126 -27 464 -49 156 -10 200 -10 238 1 26 7 48 16 50 19 3 4 -2 36 -9 71
-9 42 -10 69 -4 76 7 9 1 14 -22 19 -45 10 -52 -3 -40 -71 15 -82 15 -84 -19
-84 -36 0 -38 5 -48 91 l-7 64 -65 1 c-36 1 -71 2 -79 3 -25 2 31 36 202 122
161 80 169 83 182 65 8 -10 12 -23 9 -28 -8 -13 6 -69 16 -63 5 3 12 0 15 -6
5 -7 73 -9 216 -7 l209 3 1 25 c1 14 1 33 0 43 -2 14 7 17 58 17 54 0 61 -2
61 -20 0 -11 7 -20 15 -20 14 0 19 -12 16 -33 0 -4 10 -7 24 -7 23 0 25 4 25
41 0 38 -2 41 -24 37 -15 -3 -23 -1 -21 6 2 6 6 23 9 39 6 23 11 27 41 27 33
0 35 -2 35 -35 0 -34 1 -35 40 -35 l40 0 0 40 c0 33 3 40 20 40 13 0 20 7 20
19 0 21 -22 33 -45 25 -11 -5 -15 1 -15 20 0 14 5 26 10 26 17 0 11 28 -7 33
-14 4 -15 5 -2 6 8 0 26 -10 39 -24 16 -17 34 -25 55 -25 28 0 33 -4 40 -32 4
-18 7 -36 6 -40 -3 -21 19 -4 31 22 15 34 28 34 45 0 7 -14 20 -28 30 -31 14
-6 12 -8 -9 -8 -23 -1 -28 -6 -28 -25 0 -14 5 -28 11 -32 7 -4 7 -9 2 -13 -6
-3 -1 -15 10 -26 11 -11 17 -14 13 -7 -4 6 -3 12 3 12 6 0 8 6 5 14 -3 8 -1
17 5 21 6 3 11 -2 11 -13 0 -19 58 -69 74 -64 5 2 6 -4 3 -13 -4 -10 0 -15 12
-15 22 0 51 -30 51 -53 0 -26 30 -50 46 -37 10 9 16 7 26 -9 7 -12 18 -21 24
-21 6 0 23 -11 38 -25 15 -14 31 -25 36 -25 5 0 14 -9 20 -20 6 -11 15 -18 19
-15 5 2 11 -4 14 -14 6 -25 -43 -103 -86 -135 -21 -16 -37 -39 -41 -57 -6 -31
-6 -31 -56 -24 -47 6 -51 5 -79 -25 -16 -18 -39 -52 -51 -75 -12 -23 -35 -57
-51 -74 -16 -18 -29 -34 -29 -37 0 -2 117 -4 260 -4 l260 0 0 511 0 511 -32
-6 c-25 -5 -28 -4 -13 3 11 5 16 10 11 10 -5 1 1 9 12 20 25 21 31 86 10 94
-10 4 -10 6 0 6 9 1 12 46 12 189 0 179 -1 188 -21 202 -157 110 -219 161
-219 179 0 9 15 34 32 56 70 84 97 146 108 249 6 44 17 119 25 166 21 120 20
127 -26 177 l-41 45 6 86 c21 323 19 370 -29 532 -7 25 -21 81 -30 125 -15 67
-31 103 -96 210 -105 174 -173 309 -166 328 5 12 15 15 44 10 64 -10 100 -30
130 -70 33 -47 119 -147 151 -178 19 -20 22 -33 23 -111 0 -49 4 -138 8 -199
7 -105 9 -113 47 -173 21 -34 42 -62 46 -62 10 0 10 667 1 672 -5 2 -31 28
-59 59 l-52 56 12 49 c19 85 30 90 75 42 l31 -33 0 2373 0 2372 -4250 0 -4250
0 0 -349z m6757 -565 c-3 -7 -27 -46 -54 -86 -26 -40 -54 -85 -62 -99 -8 -14
-26 -42 -41 -61 -15 -19 -30 -45 -34 -56 -4 -12 -15 -29 -26 -39 -11 -10 -20
-24 -20 -32 0 -7 -3 -13 -8 -13 -4 0 -27 -29 -51 -65 -24 -36 -47 -65 -50 -65
-17 0 -62 51 -76 88 -17 41 -28 51 -39 33 -4 -5 0 -12 6 -14 7 -3 2 -6 -12 -6
-31 -1 -130 48 -130 64 0 13 42 35 65 35 8 0 15 7 15 15 0 8 5 15 10 15 6 0
32 15 58 34 26 18 77 49 113 68 36 19 85 48 109 64 25 17 59 36 75 43 17 6 50
30 75 51 44 39 87 54 77 26z m307 -2961 c33 -8 66 -21 75 -29 21 -22 7 -21
-93 4 -43 11 -80 20 -82 20 -2 0 -4 5 -4 10 0 14 34 12 104 -5z m804 -507 c-5
-51 -28 -47 -28 5 0 24 3 47 7 51 12 11 24 -22 21 -56z m392 -2487 c0 -5 -9
-11 -20 -14 -20 -5 -26 3 -13 16 9 10 33 8 33 -2z m-213 -156 c-2 -14 -10 -34
-19 -44 -9 -11 -18 -27 -21 -38 -3 -15 -5 -15 -14 7 -12 29 -1 68 24 88 25 18
34 15 30 -13z m1 -225 c12 -19 11 -20 -8 -8 -20 13 -27 28 -12 28 4 0 13 -9
20 -20z m98 -76 c17 -14 17 -15 1 -10 -10 3 -23 6 -28 6 -5 0 -9 5 -9 10 0 14
13 12 36 -6z m174 -129 c17 -9 30 -20 30 -25 0 -17 -21 -11 -52 15 -33 28 -22
33 22 10z m-640 -34 c39 -28 39 -51 1 -51 -21 0 -32 6 -36 20 -3 11 -10 20
-15 20 -5 0 -12 -9 -15 -20 -7 -23 -35 -27 -35 -5 0 8 5 25 11 39 14 30 46 29
89 -3z m803 -16 c-3 -9 -8 -14 -10 -11 -3 3 -2 9 2 15 9 16 15 13 8 -4z m-944
-21 c10 -9 -18 -25 -50 -29 -19 -3 -29 -1 -23 3 6 4 13 15 17 25 5 14 13 17
29 11 13 -3 25 -8 27 -10z m891 -9 c0 -8 9 -19 20 -25 11 -6 20 -15 20 -20 0
-20 -29 -9 -63 25 l-35 35 29 0 c19 0 29 -5 29 -15z m-1053 -21 c-3 -3 -12 -4
-19 -1 -8 3 -5 6 6 6 11 1 17 -2 13 -5z m-337 -172 c0 -13 -28 -47 -34 -42
-10 10 6 50 20 50 8 0 14 -4 14 -8z m80 -2 c0 -5 -2 -10 -4 -10 -3 0 -8 5 -11
10 -3 6 -1 10 4 10 6 0 11 -4 11 -10z m1060 -175 c10 -12 10 -15 -4 -15 -9 0
-16 7 -16 15 0 8 2 15 4 15 2 0 9 -7 16 -15z"/>
<path d="M4320 7697 c0 -8 11 -39 25 -69 29 -62 31 -57 9 18 -15 52 -34 80
-34 51z"/>
<path d="M4354 7484 c-10 -32 -22 -60 -26 -62 -5 -2 -8 -13 -8 -23 0 -11 -5
-29 -11 -40 -5 -11 -9 -30 -6 -42 3 -19 4 -18 12 8 13 48 55 135 65 135 5 0
11 -8 13 -17 2 -10 2 2 0 27 -8 76 -19 80 -39 14z"/>
<path d="M4274 7254 c-12 -47 -74 -189 -84 -192 -6 -2 -10 -8 -10 -12 0 -8
-92 -163 -140 -235 -8 -13 -33 -51 -54 -86 -22 -35 -42 -66 -45 -69 -14 -12
-40 -68 -35 -73 4 -3 34 36 67 86 75 112 76 115 105 163 12 22 43 71 68 109
24 39 57 97 73 130 15 33 34 65 42 72 8 6 42 13 77 15 49 2 62 6 62 19 0 13
-9 15 -51 11 -59 -6 -72 6 -64 56 7 38 -2 43 -11 6z"/>
<path d="M3864 6533 c-15 -26 -38 -62 -51 -79 -13 -17 -23 -35 -23 -41 0 -9
-10 -23 -50 -70 -5 -7 -10 -15 -10 -19 0 -3 -16 -28 -36 -55 -21 -29 -30 -49
-22 -49 13 0 83 97 113 160 10 18 24 40 31 48 20 20 87 142 81 148 -3 3 -18
-16 -33 -43z"/>
<path d="M3605 6143 c-27 -37 -52 -72 -55 -79 -3 -6 -15 -24 -27 -40 -52 -67
-93 -124 -93 -129 0 -2 -18 -28 -40 -57 -22 -29 -40 -59 -40 -65 0 -7 -3 -13
-7 -13 -5 0 -33 -34 -63 -76 -30 -42 -83 -113 -117 -158 -65 -84 -108 -154
-100 -163 3 -2 20 17 38 44 18 26 65 91 104 144 38 53 93 128 120 167 28 40
74 104 102 144 29 40 53 76 53 80 0 4 10 18 23 31 12 13 38 48 57 76 19 29 50
72 68 97 18 25 32 49 30 54 -2 6 -25 -20 -53 -57z"/>
<path d="M1157 6105 c-4 -22 -6 -53 -6 -70 1 -16 5 -3 10 30 10 67 6 102 -4
40z"/>
<path d="M1088 5710 c-6 -23 -59 -381 -89 -605 -16 -124 9 -525 34 -525 5 0 7
15 3 33 -12 72 -28 345 -23 411 8 107 65 554 78 611 6 28 9 61 7 75 l-4 25 -6
-25z"/>
<path d="M1302 5364 c-5 -11 -15 -35 -20 -54 -6 -19 -18 -55 -28 -80 -9 -25
-38 -106 -64 -180 -26 -74 -60 -167 -74 -207 -20 -54 -29 -105 -36 -205 -14
-185 -20 -225 -31 -207 -13 21 -10 -135 6 -271 7 -63 13 -110 14 -105 1 6 12
165 25 355 17 247 29 358 41 390 9 25 34 95 55 155 21 61 57 162 80 225 64
176 65 179 53 191 -8 8 -14 6 -21 -7z"/>
<path d="M3029 5328 c-6 -11 -25 -37 -43 -55 -17 -19 -42 -51 -56 -71 -14 -20
-38 -52 -54 -69 -16 -18 -36 -44 -45 -57 -9 -13 -40 -55 -69 -92 -28 -38 -62
-82 -75 -99 -12 -16 -69 -89 -127 -162 -58 -72 -134 -169 -170 -215 -35 -46
-68 -84 -72 -86 -5 -2 -8 -9 -8 -16 0 -6 -13 -26 -29 -43 -16 -18 -44 -54 -63
-79 -18 -26 -45 -61 -60 -78 -24 -26 -37 -56 -24 -56 2 0 43 51 90 113 88 115
202 262 316 407 36 45 72 92 80 104 15 22 91 117 100 126 3 3 13 16 22 30 24
35 63 86 138 181 36 45 83 105 104 133 22 28 45 57 53 64 12 13 18 42 8 42 -2
0 -9 -10 -16 -22z"/>
<path d="M450 5047 c0 -8 7 -55 16 -106 18 -104 55 -224 107 -351 20 -47 61
-155 92 -240 31 -85 61 -166 68 -180 27 -55 207 -369 282 -490 29 -47 94 -155
144 -240 103 -173 118 -196 127 -188 5 6 -36 84 -118 226 -16 26 -38 73 -49
105 -12 31 -27 57 -33 57 -15 0 -53 57 -106 155 -24 44 -56 98 -70 120 -15 22
-44 72 -65 110 -20 39 -41 75 -45 80 -17 21 -204 515 -265 700 -24 72 -49 158
-56 193 -6 34 -16 62 -20 62 -5 0 -9 -6 -9 -13z"/>
<path d="M1025 4560 c-3 -5 -1 -18 4 -27 9 -16 10 -14 11 10 0 28 -5 34 -15
17z"/>
<path d="M2340 3885 c-30 -14 -68 -32 -85 -40 -16 -8 -79 -35 -140 -61 -130
-54 -185 -84 -239 -134 -23 -20 -86 -70 -141 -110 -158 -117 -200 -157 -293
-280 -48 -63 -89 -117 -92 -120 -3 -3 -13 -16 -21 -30 -9 -14 -37 -49 -62 -78
-25 -29 -55 -76 -68 -103 -13 -27 -27 -49 -31 -49 -7 0 -19 51 -38 160 -6 36
-15 88 -20 115 -5 28 -13 80 -16 118 -5 45 -11 67 -20 67 -22 0 -23 -13 -8
-124 12 -96 79 -420 90 -438 2 -3 0 -17 -5 -31 -11 -28 -55 -47 -109 -47 -19
0 -79 -14 -133 -31 -55 -18 -102 -29 -106 -25 -7 6 -51 296 -104 681 -30 219
-48 285 -65 241 -6 -15 29 -290 71 -566 27 -174 85 -534 100 -615 13 -72 24
-141 70 -435 27 -170 66 -385 80 -442 9 -32 26 -108 39 -170 14 -62 41 -183
60 -268 20 -85 43 -189 52 -230 19 -91 59 -264 80 -342 13 -52 62 -164 179
-415 35 -75 41 -83 67 -83 15 0 28 2 28 5 0 2 -32 69 -71 147 -39 79 -86 173
-104 210 -32 63 -68 195 -144 528 -17 74 -60 259 -96 411 -65 277 -88 402
-170 904 -25 149 -50 294 -56 323 -6 30 -8 56 -5 59 6 7 124 -41 170 -68 18
-11 40 -15 61 -12 40 6 54 -1 160 -86 47 -38 90 -71 96 -73 5 -2 22 -50 39
-108 25 -91 27 -107 15 -119 -13 -13 -17 -12 -35 4 -11 10 -23 15 -27 11 -25
-25 6 -359 37 -390 7 -7 24 4 55 34 38 37 47 42 55 30 5 -8 10 -19 10 -25 1
-15 28 -259 40 -355 20 -169 33 -214 91 -337 31 -67 60 -131 64 -143 16 -49
84 -154 143 -220 35 -38 83 -95 107 -127 24 -32 55 -69 69 -82 14 -14 26 -33
26 -44 0 -17 -5 -19 -36 -14 -20 3 -41 13 -48 20 -6 8 -31 29 -55 46 -52 36
-71 29 -71 -27 0 -20 -5 -74 -10 -121 -28 -241 -40 -348 -40 -364 0 -14 10
-17 55 -17 42 0 55 3 55 15 0 8 4 23 9 33 6 9 13 34 16 55 3 20 10 37 15 37 6
0 10 20 10 44 0 26 9 60 24 89 14 25 28 66 31 91 7 45 8 46 44 43 28 -1 48
-13 87 -50 28 -26 59 -63 70 -82 10 -18 29 -39 43 -45 59 -26 72 -39 61 -61
-14 -25 -110 -117 -130 -124 -8 -3 -21 -14 -28 -25 -12 -20 -10 -20 276 -20
203 0 291 3 299 11 9 9 19 9 40 0 18 -7 75 -11 158 -9 l130 3 -80 18 c-44 10
-111 26 -150 34 -60 13 -399 150 -505 203 -35 18 -85 67 -170 169 -25 29 -65
77 -90 106 -37 44 -113 136 -246 303 -32 40 -190 381 -202 438 -6 27 -16 92
-23 144 -34 286 -72 517 -100 615 -66 235 -70 255 -43 255 22 0 104 -65 125
-99 11 -19 29 -32 51 -36 18 -4 47 -14 65 -22 47 -22 79 -14 74 17 -1 13 -13
36 -25 51 -30 35 -50 91 -85 241 -19 81 -37 134 -50 147 -16 16 -17 26 -10 62
10 55 45 174 55 191 8 15 11 17 133 144 48 50 105 113 126 140 81 101 160 190
208 237 45 43 52 46 67 32 22 -20 30 -19 30 3 0 9 12 35 26 56 l26 38 59 -5
c32 -4 71 -12 86 -20 15 -8 66 -27 113 -42 94 -32 110 -41 110 -62 0 -29 -101
-180 -165 -246 -36 -37 -65 -72 -65 -77 0 -5 -25 -30 -55 -56 -54 -47 -66 -64
-44 -64 5 0 7 5 4 10 -3 6 4 10 16 10 21 0 22 -1 4 -20 -18 -19 -17 -20 7 -20
14 0 31 7 38 15 10 12 61 25 120 30 9 0 20 4 26 7 5 4 16 3 23 -1 15 -9 59 -3
67 10 11 18 32 8 42 -18 6 -16 13 -51 15 -79 8 -77 32 -118 83 -143 25 -11 58
-21 75 -21 46 0 122 44 153 89 36 52 45 95 46 214 0 83 3 100 20 117 11 11 30
20 43 21 12 0 16 3 10 6 -19 7 -16 23 5 23 10 0 23 5 30 12 7 7 12 20 12 30 0
22 49 25 80 6 10 -7 22 -9 26 -5 12 12 -17 237 -37 284 -10 25 -19 48 -19 53
0 20 37 17 112 -11 123 -45 129 -20 18 84 -70 66 -73 67 -347 177 -175 69
-216 81 -295 90 -219 23 -219 23 -278 -5z m-400 -592 c-1 -27 -222 -271 -228
-253 -7 20 68 121 142 192 67 64 86 78 86 61z m-715 -462 c-17 -34 -39 -40
-49 -15 -10 26 -7 34 14 34 10 0 25 10 32 23 19 35 23 -5 3 -42z"/>
<path d="M2169 2905 c-20 -7 -51 -21 -69 -30 l-33 -17 7 -94 c5 -58 18 -127
35 -181 16 -48 34 -110 42 -137 8 -27 24 -60 37 -74 21 -22 25 -23 38 -10 14
13 14 22 1 74 -33 132 -61 358 -51 421 5 33 11 43 25 43 11 0 19 5 19 10 0 12
-6 12 -51 -5z"/>
<path d="M5859 2342 c-9 -1 -22 -13 -28 -26 -20 -36 -238 -176 -276 -176 -8 0
-24 -9 -35 -20 -11 -11 -31 -20 -44 -20 -13 0 -41 -6 -63 -14 -22 -8 -61 -17
-88 -20 -55 -8 -88 -23 -80 -37 10 -14 -15 -11 -31 5 -17 17 -62 6 -103 -26
-13 -10 -42 -23 -65 -30 -41 -12 -41 -12 -11 -16 35 -3 139 40 127 54 -4 4 0
3 9 -4 12 -9 28 -9 75 3 32 8 70 20 84 26 14 7 43 13 65 15 21 3 41 8 45 13 5
8 39 18 95 26 16 3 33 12 38 20 4 8 19 15 33 15 14 0 37 9 51 20 14 11 34 20
44 20 11 0 19 4 19 10 0 5 19 19 43 30 56 26 71 39 91 77 11 21 21 30 31 27 8
-4 15 -3 15 1 0 13 -25 31 -41 27z"/>
<path d="M4960 1941 c0 -5 -10 -12 -22 -14 -13 -3 -5 -4 16 -4 40 2 65 27 27
27 -12 0 -21 -4 -21 -9z"/>
<path d="M4815 1904 c-33 -7 -89 -16 -125 -20 -36 -3 -73 -11 -83 -16 -11 -6
-76 -7 -161 -3 -136 6 -142 5 -143 -14 -1 -13 7 -23 25 -29 33 -11 321 -5 336
7 6 5 45 14 86 21 41 7 80 16 85 20 6 4 22 10 38 14 15 3 27 13 27 21 0 17 -5
17 -85 -1z"/>
<path d="M1 508 l-1 -508 188 0 187 0 0 89 c0 49 3 92 6 95 8 9 39 -4 39 -15
0 -5 23 -45 52 -89 45 -68 56 -80 80 -80 15 0 28 3 28 6 0 10 -319 485 -345
514 -52 59 -132 212 -182 350 l-52 145 0 -507z"/>
<path d="M7450 674 c0 -6 9 -19 19 -28 21 -19 33 -64 19 -72 -13 -8 1 -24 16
-18 8 3 14 26 15 65 2 63 1 65 -31 48 -16 -9 -23 -8 -29 2 -5 8 -9 9 -9 3z"/>
<path d="M6920 561 c-34 -7 -35 -7 -8 -14 24 -6 27 -13 33 -69 9 -85 13 -98
34 -98 25 0 42 20 32 39 -12 21 -18 121 -8 121 52 1 56 -1 67 -36 7 -19 10
-53 8 -74 -4 -45 2 -50 67 -50 43 0 72 18 56 36 -8 9 -31 92 -31 113 0 6 18
11 39 11 l40 0 11 -57 c21 -110 18 -105 48 -101 30 3 30 3 17 101 -8 57 -8 57
18 57 32 0 39 -10 52 -85 11 -61 25 -75 62 -61 12 5 13 9 3 21 -7 8 -10 24 -7
35 3 11 1 23 -4 26 -17 10 -9 34 10 34 11 0 22 3 25 8 5 9 -15 36 -29 39 -34
5 -506 9 -535 4z"/>
<path d="M8217 506 c10 -13 20 -20 21 -15 5 12 -17 39 -30 39 -5 0 -1 -11 9
-24z"/>
<path d="M8260 470 c0 -5 7 -10 15 -10 8 0 15 5 15 10 0 6 -7 10 -15 10 -8 0
-15 -4 -15 -10z"/>
<path d="M7633 403 c9 -2 23 -2 30 0 6 3 -1 5 -18 5 -16 0 -22 -2 -12 -5z"/>
<path d="M8281 354 c0 -11 3 -14 6 -6 3 7 2 16 -1 19 -3 4 -6 -2 -5 -13z"/>
<path d="M1976 339 c4 -8 7 -29 5 -47 -2 -25 1 -33 11 -30 8 3 13 20 13 44 0
30 -4 40 -19 42 -13 3 -16 0 -10 -9z"/>
<path d="M7541 324 c0 -11 3 -14 6 -6 3 7 2 16 -1 19 -3 4 -6 -2 -5 -13z"/>
<path d="M6808 89 c-38 -40 -68 -76 -68 -81 0 -4 20 -8 45 -8 31 0 45 4 45 13
0 7 9 31 19 53 19 39 19 39 26 13 4 -15 6 -33 5 -40 -5 -33 1 -39 36 -39 l37
0 -7 43 c-4 23 -10 53 -13 66 -5 20 -3 23 11 18 10 -4 26 -7 36 -7 15 0 19
-11 25 -60 l7 -60 34 0 c38 0 41 12 25 80 -11 48 -6 57 33 52 30 -3 34 -8 40
-40 3 -21 6 -49 6 -64 0 -28 1 -28 66 -28 59 0 65 2 59 18 -15 35 -25 106 -16
115 5 5 24 7 42 5 l34 -3 3 -67 3 -68 36 0 c26 0 34 4 30 14 -3 8 -9 42 -13
75 -5 44 -11 61 -23 64 -9 2 -124 5 -256 6 l-240 2 -67 -72z"/>
<path d="M7455 113 c8 -21 17 -55 20 -76 5 -32 10 -37 32 -37 l25 0 -7 67 c-4
38 -9 71 -12 76 -2 4 -19 7 -38 7 l-33 0 13 -37z"/>
</g>
</svg>
