<?xml version="1.0" standalone="no"?>
<!DOCTYPE svg PUBLIC "-//W3C//DTD SVG 20010904//EN"
 "http://www.w3.org/TR/2001/REC-SVG-20010904/DTD/svg10.dtd">
<svg version="1.0" xmlns="http://www.w3.org/2000/svg"
 width="179.000000pt" height="180.000000pt" viewBox="0 0 179.000000 180.000000"
 preserveAspectRatio="xMidYMid meet">

<g transform="translate(0.000000,180.000000) scale(0.100000,-0.100000)"
fill="#000000" stroke="none">
<path d="M808 1793 c6 -2 18 -2 25 0 6 3 1 5 -13 5 -14 0 -19 -2 -12 -5z"/>
<path d="M1130 1780 c-8 -15 -20 -20 -53 -19 -30 0 -36 3 -23 8 15 6 16 9 5
13 -8 3 -27 -1 -44 -7 -29 -12 -28 -13 35 -22 50 -7 68 -6 76 4 11 13 24 8 24
-9 0 -5 -4 -6 -10 -3 -5 3 -10 1 -10 -5 0 -8 -49 -10 -165 -8 -91 2 -166 -1
-168 -5 -1 -5 -49 -10 -105 -11 -56 -2 -106 -7 -110 -11 -4 -4 9 -5 28 -2 35
6 35 6 10 -8 -14 -8 -32 -14 -41 -15 -8 0 -43 -11 -77 -25 -33 -14 -68 -22
-75 -19 -8 3 -18 1 -22 -5 -4 -7 1 -8 12 -4 10 3 15 3 11 -2 -10 -11 -89 -15
-82 -4 3 5 -2 6 -10 3 -9 -3 -16 -15 -16 -26 0 -10 5 -16 10 -13 6 4 8 9 6 13
-2 4 7 8 20 8 18 2 11 -7 -34 -37 -55 -39 -70 -41 -117 -24 -16 5 -17 5 -5 -4
9 -6 10 -11 3 -11 -6 0 -19 -3 -28 -7 -15 -5 -16 -3 -5 18 10 20 10 22 0 12
-11 -10 -20 -6 -47 17 -21 19 -45 30 -64 30 -21 0 -32 6 -39 23 -9 24 -10 23
-14 -10 -2 -13 2 -20 8 -16 6 3 5 0 -2 -8 -6 -7 -12 -19 -12 -27 0 -10 7 -8
26 7 15 12 30 21 35 21 10 0 133 -108 137 -121 2 -5 -10 -25 -27 -44 -17 -19
-41 -53 -53 -75 -13 -21 -33 -42 -45 -45 -20 -5 -81 -90 -71 -100 2 -2 14 16
27 40 20 37 47 62 57 53 1 -2 -6 -34 -16 -71 -21 -73 -54 -281 -48 -299 2 -6
14 50 26 124 36 219 75 308 179 414 100 100 201 152 403 205 96 26 140 32 270
36 191 6 247 -3 367 -63 245 -121 407 -376 497 -780 15 -69 25 -96 25 -74 1
39 -41 222 -66 288 -18 48 -16 53 35 68 40 13 14 17 -28 5 -24 -7 -29 0 -88
113 -121 231 -232 343 -416 421 -36 15 -66 33 -66 39 1 15 20 39 49 58 l24 17
-31 -1 c-17 -1 -29 -4 -27 -8 3 -4 -2 -13 -9 -19 -11 -9 -16 -9 -21 0 -4 6 -1
15 6 20 10 6 10 9 2 9 -7 0 -17 -9 -23 -20z m-447 -77 c-7 -2 -19 -2 -25 0 -7
3 -2 5 12 5 14 0 19 -2 13 -5z m-477 -194 c4 -8 9 -7 15 2 5 8 9 10 9 4 0 -5
-4 -16 -8 -23 -7 -9 -13 -8 -27 8 -10 11 -13 20 -7 20 6 0 14 -5 18 -11z"/>
<path d="M1520 1763 c55 -66 162 -235 217 -343 50 -99 53 -102 51 -63 -2 22
-6 39 -11 36 -10 -6 -29 46 -21 59 4 6 2 8 -3 5 -14 -9 -25 21 -17 46 5 16 8
17 15 6 5 -8 9 -9 8 -4 0 6 -7 21 -15 35 -8 14 -13 17 -10 8 6 -21 -2 -48 -15
-48 -5 0 -7 14 -5 30 3 23 1 28 -9 20 -9 -8 -22 5 -49 51 -40 67 -44 78 -21
59 13 -11 14 -10 9 4 -4 10 -13 15 -20 12 -20 -8 -55 46 -42 65 8 11 8 9 3 -6
-5 -15 -3 -17 6 -8 13 13 3 36 -13 27 -6 -4 -8 1 -4 14 4 12 1 22 -8 25 -12 5
-13 0 -5 -25 8 -30 8 -30 -11 -13 -11 10 -17 22 -13 28 3 5 1 7 -5 3 -6 -3
-13 -2 -17 4 -3 5 -11 10 -17 10 -5 0 4 -17 22 -37z"/>
<path d="M805 1770 c-3 -5 -1 -10 4 -10 6 0 11 5 11 10 0 6 -2 10 -4 10 -3 0
-8 -4 -11 -10z"/>
<path d="M843 1773 c9 -2 23 -2 30 0 6 3 -1 5 -18 5 -16 0 -22 -2 -12 -5z"/>
<path d="M835 1749 c-4 -5 27 -9 76 -9 45 0 80 2 78 4 -10 9 -149 14 -154 5z"/>
<path d="M500 1712 c8 -5 26 -13 40 -16 17 -5 20 -4 10 2 -8 5 -26 13 -40 16
-17 5 -20 4 -10 -2z"/>
<path d="M1610 1705 c-8 -9 -8 -15 -2 -15 6 0 13 6 15 13 4 9 8 8 16 -3 9 -13
11 -13 11 3 0 21 -23 22 -40 2z"/>
<path d="M1658 1698 c-3 -16 0 -29 6 -31 8 -3 8 -8 -1 -18 -7 -8 -8 -20 -4
-28 12 -19 20 32 12 72 l-7 32 -6 -27z"/>
<path d="M485 1670 c-8 -13 5 -13 25 0 13 8 13 10 -2 10 -9 0 -20 -4 -23 -10z"/>
<path d="M35 1629 c-4 -6 -5 -12 -2 -15 2 -3 7 2 10 11 7 17 1 20 -8 4z"/>
<path d="M67 1633 c-12 -11 -8 -21 13 -26 11 -3 20 -1 20 4 0 5 5 9 11 9 6 0
9 -6 7 -12 -3 -7 1 -18 8 -25 21 -21 23 -15 7 17 -12 25 -19 29 -40 24 -18 -5
-24 -3 -19 5 8 12 3 15 -7 4z"/>
<path d="M140 1629 c0 -5 5 -7 10 -4 6 3 10 8 10 11 0 2 -4 4 -10 4 -5 0 -10
-5 -10 -11z"/>
<path d="M1048 1603 c6 -2 18 -2 25 0 6 3 1 5 -13 5 -14 0 -19 -2 -12 -5z"/>
<path d="M1144 1585 c33 -8 81 -29 108 -45 51 -32 58 -34 58 -22 0 18 -121 73
-172 77 l-53 5 59 -15z"/>
<path d="M244 1548 c10 -6 22 -6 26 -2 5 5 -3 10 -18 11 -22 1 -24 0 -8 -9z"/>
<path d="M514 1491 c-57 -37 -116 -91 -99 -91 4 0 27 18 51 40 24 22 60 48 79
57 19 9 35 20 35 25 0 12 -2 11 -66 -31z"/>
<path d="M820 1495 c0 -17 162 -172 219 -210 42 -28 59 -45 55 -55 -3 -8 -10
-27 -14 -42 -8 -26 -7 -28 21 -28 17 0 43 7 60 15 27 15 35 14 112 -11 59 -19
109 -27 177 -29 l95 -4 -82 9 c-220 23 -367 95 -544 267 -55 53 -99 92 -99 88z
m333 -282 l32 -16 -30 -13 c-30 -13 -65 -18 -65 -10 0 12 20 56 25 56 3 0 20
-7 38 -17z"/>
<path d="M756 1355 c-42 -72 -145 -216 -211 -294 -108 -129 -140 -164 -196
-215 l-64 -60 -5 70 -5 69 -7 -64 c-5 -35 -8 -96 -8 -134 0 -104 -14 -134 -72
-155 -26 -9 -48 -20 -48 -24 0 -3 25 -12 56 -19 31 -7 57 -17 59 -23 1 -6 19
-96 39 -201 20 -104 39 -201 42 -215 6 -24 5 -23 -31 10 -52 49 -146 166 -179
222 -15 27 -31 50 -35 53 -11 6 6 -97 34 -203 27 -103 29 -116 14 -89 -35 61
-109 338 -109 411 0 14 -5 26 -11 26 -6 0 -8 -8 -5 -17 3 -10 8 -40 11 -68 4
-27 18 -92 31 -143 13 -52 24 -96 24 -99 0 -5 -32 1 -67 13 -12 5 -15 4 -8 -4
6 -6 25 -14 42 -19 28 -7 38 -19 75 -93 l43 -85 43 -3 c49 -4 50 -2 20 84 -28
82 -48 84 -49 7 l0 -58 -13 35 c-8 20 -17 50 -21 68 -7 32 -6 32 32 32 34 0
44 -6 96 -65 63 -71 103 -87 91 -37 -4 15 -11 37 -15 50 -24 63 -4 46 32 -29
44 -90 47 -95 54 -88 2 3 -14 41 -37 85 l-41 79 54 -54 c61 -61 132 -98 205
-106 l49 -5 -70 23 c-98 33 -125 49 -172 100 -64 70 -84 118 -119 296 -3 13
-7 22 -9 20 -5 -6 24 -160 40 -209 11 -35 12 -41 1 -27 -16 20 -74 297 -62
297 1 0 17 -11 36 -25 18 -14 35 -23 37 -21 2 2 -4 33 -12 70 l-16 68 47 55
c26 30 58 60 71 66 12 5 23 14 23 19 0 12 44 10 58 -4 21 -21 14 -37 -37 -88
-48 -48 -49 -50 -39 -87 5 -21 14 -42 19 -48 12 -12 11 -5 -2 33 -9 26 -7 35
13 62 18 26 65 60 80 60 2 0 3 -14 4 -31 3 -68 56 -63 62 6 3 36 5 37 33 31
25 -5 29 -3 25 12 -2 9 -8 32 -11 51 l-7 33 33 -6 34 -7 -28 25 c-30 28 -75
43 -154 52 -44 6 -61 3 -108 -21 -37 -17 -64 -25 -80 -21 -21 5 -24 3 -22 -21
2 -21 -3 -29 -19 -31 -11 -2 -26 4 -33 12 -14 16 -14 15 62 74 20 17 79 78
129 136 86 98 95 106 129 106 50 0 99 11 99 22 0 5 -16 18 -36 30 -40 24 -40
28 15 101 44 59 136 215 130 221 -2 2 -26 -33 -53 -79z m-103 -244 c15 -8 27
-17 27 -21 0 -8 -91 -23 -98 -16 -5 6 31 56 38 53 3 -2 17 -9 33 -16z m-363
-416 c0 -8 -4 -17 -10 -20 -6 -4 -10 5 -10 20 0 15 4 24 10 20 6 -3 10 -12 10
-20z m-123 -458 c36 -46 34 -57 -6 -57 -26 0 -29 4 -40 57 -14 70 -13 83 2 59
7 -10 26 -37 44 -59z"/>
<path d="M1500 1248 c30 -57 100 -221 100 -235 0 -1 -7 0 -15 3 -8 4 -15 15
-15 27 0 19 -1 19 -18 4 -28 -25 -45 -21 -40 8 6 30 3 31 -29 5 -20 -16 -41
-20 -99 -20 -72 0 -73 0 -107 -40 -39 -46 -74 -107 -65 -115 3 -3 23 13 46 35
34 35 45 40 69 34 42 -10 48 -20 29 -48 -12 -20 -25 -26 -51 -26 -42 0 -43 -8
-11 -76 23 -49 46 -77 46 -55 0 5 -4 13 -10 16 -17 11 -11 41 13 63 29 27 34
27 57 0 15 -19 22 -21 37 -12 10 7 18 23 18 38 -1 19 4 26 18 26 33 0 78 -31
93 -63 l15 -32 -5 31 c-3 17 -17 58 -33 90 -15 32 -29 62 -31 66 -2 4 11 1 29
-5 41 -15 66 -57 75 -125 l7 -55 13 33 c8 18 16 31 18 29 2 -2 24 -51 49 -109
75 -173 71 -266 -14 -386 -47 -64 -201 -182 -291 -222 -16 -6 -28 -17 -28 -24
0 -9 -40 -21 -114 -35 -62 -12 -144 -33 -182 -45 l-69 -23 58 -3 c32 -2 102 6
157 17 54 12 133 21 174 21 66 0 75 -2 81 -20 3 -11 11 -20 16 -20 27 0 -7 48
-56 79 l-45 28 76 47 76 46 -7 -100 c-5 -71 -4 -100 4 -100 7 0 11 34 11 103
l0 103 51 39 c28 21 66 59 85 83 l34 45 0 -40 c0 -22 3 -55 6 -72 5 -26 9 -29
21 -19 21 17 43 64 43 90 -1 19 -5 16 -23 -17 l-22 -40 -5 55 c-3 37 1 74 13
115 30 97 20 177 -38 305 -55 123 -64 164 -41 208 21 42 21 45 -11 38 -39 -8
-47 0 -72 79 -24 74 -109 245 -122 245 -5 0 9 -33 31 -72z"/>
<path d="M8 808 c-2 -46 0 -123 3 -173 4 -73 6 -57 7 83 2 178 -4 234 -10 90z"/>
<path d="M370 435 c0 -8 2 -15 4 -15 2 0 6 7 10 15 3 8 1 15 -4 15 -6 0 -10
-7 -10 -15z"/>
<path d="M1098 433 c6 -2 18 -2 25 0 6 3 1 5 -13 5 -14 0 -19 -2 -12 -5z"/>
<path d="M968 393 c7 -3 16 -2 19 1 4 3 -2 6 -13 5 -11 0 -14 -3 -6 -6z"/>
<path d="M50 60 c6 -11 13 -20 16 -20 2 0 0 9 -6 20 -6 11 -13 20 -16 20 -2 0
0 -9 6 -20z"/>
<path d="M1642 20 c0 -14 2 -19 5 -12 2 6 2 18 0 25 -3 6 -5 1 -5 -13z"/>
<path d="M70 21 c0 -6 4 -13 10 -16 6 -3 7 1 4 9 -7 18 -14 21 -14 7z"/>
</g>
</svg>
