<?xml version="1.0" standalone="no"?>
<!DOCTYPE svg PUBLIC "-//W3C//DTD SVG 20010904//EN"
 "http://www.w3.org/TR/2001/REC-SVG-20010904/DTD/svg10.dtd">
<svg version="1.0" xmlns="http://www.w3.org/2000/svg"
 width="1024.000000pt" height="1024.000000pt" viewBox="0 0 1024.000000 1024.000000"
 preserveAspectRatio="xMidYMid meet">

<g transform="translate(0.000000,1024.000000) scale(0.100000,-0.100000)"
fill="#000000" stroke="none">
<path d="M1052 10003 c-58 -601 -58 -1416 -1 -1776 11 -71 19 -130 17 -132 -2
-1 -39 -17 -83 -35 -44 -17 -90 -41 -102 -52 -34 -32 -31 -80 9 -123 38 -40
143 -105 170 -105 10 0 18 -2 18 -4 0 -2 -22 -41 -48 -87 -50 -87 -66 -131
-77 -210 -10 -70 3 -87 70 -91 l55 -3 -41 -70 c-122 -207 -240 -468 -359 -790
-34 -93 -66 -174 -71 -180 -5 -5 -9 -20 -9 -33 0 -15 -4 -21 -11 -16 -7 4 -10
1 -7 -7 3 -8 1 -27 -4 -44 -26 -84 -56 -213 -106 -460 -12 -55 -30 -170 -42
-255 -11 -85 -23 -165 -25 -177 -6 -27 -36 -31 -55 -7 -11 12 -8 26 18 79 18
35 32 68 32 73 0 5 -15 12 -32 15 -18 3 -46 9 -61 13 -19 4 -33 2 -45 -9 -10
-9 -36 -19 -58 -22 -44 -8 -45 -7 -88 117 -10 25 -23 49 -31 52 -13 4 -45 -32
-45 -52 0 -5 -8 -24 -17 -43 -15 -28 -18 -68 -21 -240 l-3 -206 43 -22 c24
-12 59 -33 78 -47 19 -14 43 -24 55 -22 18 3 20 10 20 68 0 70 -1 69 77 85 15
3 33 11 40 18 20 21 59 39 66 32 3 -3 -6 -119 -21 -258 -14 -139 -30 -326 -33
-417 -4 -91 -9 -159 -11 -152 -5 14 -73 17 -73 2 0 -5 9 -10 20 -10 17 0 20
-7 20 -48 0 -37 5 -53 21 -68 l22 -19 -7 48 c-4 26 -3 47 2 47 5 0 9 -39 9
-87 0 -54 -3 -78 -8 -63 -6 21 -7 21 -8 5 -2 -48 -79 -60 -171 -27 -30 11 -62
20 -70 21 -8 0 -27 3 -42 7 l-28 6 0 -1005 0 -1005 30 14 c17 9 30 20 30 25 0
5 15 26 34 46 39 44 49 73 71 208 9 55 25 123 36 152 10 29 21 74 23 101 5 52
24 102 38 102 4 0 8 6 8 14 0 8 4 16 8 18 5 1 27 30 50 63 53 78 128 158 142
153 13 -4 44 -85 54 -143 24 -136 202 -564 263 -630 10 -11 33 -39 51 -62 32
-41 136 -129 179 -152 36 -18 34 2 -4 49 -78 99 -163 315 -203 515 -29 146
-26 178 8 80 38 -110 48 -131 121 -275 112 -220 257 -440 362 -550 62 -65 148
-168 144 -172 -3 -3 -12 -43 -21 -89 -22 -123 -42 -200 -43 -166 -1 16 -5 26
-10 23 -11 -7 -45 31 -70 82 -23 46 -44 53 -61 21 -16 -29 -70 -59 -107 -59
-18 0 -49 9 -68 20 -49 28 -76 28 -112 2 -17 -12 -38 -22 -47 -22 -14 0 -70
50 -109 99 -16 19 -24 21 -65 15 -82 -12 -85 -15 -77 -100 5 -50 4 -74 -3 -74
-6 0 -27 -16 -47 -37 -29 -30 -35 -44 -35 -78 0 -31 -6 -47 -24 -64 l-24 -23
-5 24 c-4 23 -4 23 -6 1 0 -13 -5 -23 -11 -23 -5 0 -10 -8 -10 -18 0 -10 -13
-31 -28 -46 -26 -24 -30 -25 -42 -11 -7 8 -18 15 -24 15 -7 0 -57 23 -112 51
-61 31 -122 54 -159 60 -33 6 -62 12 -64 15 -8 8 0 315 9 339 4 12 11 60 15
108 7 103 -3 127 -52 127 l-33 0 0 -980 0 -980 40 0 40 0 0 88 c0 48 -7 200
-15 337 -32 529 -32 545 4 545 24 0 30 -8 78 -115 23 -51 44 -114 48 -145 3
-30 1 -140 -5 -245 -6 -104 -13 -252 -17 -327 l-6 -138 201 0 200 0 7 85 c4
46 5 132 1 190 -3 58 -9 151 -12 208 -10 161 28 247 108 247 22 0 38 -5 38
-12 0 -6 8 -20 17 -31 27 -29 24 -235 -7 -551 -15 -152 -27 -136 99 -136 l109
0 6 93 c3 50 9 171 15 267 5 96 14 197 20 223 12 55 7 70 -42 127 -36 41 -90
80 -111 80 -19 0 -36 30 -36 63 0 47 92 82 196 74 38 -3 79 -8 91 -12 17 -6
25 -1 37 24 9 16 16 46 16 66 0 28 4 35 20 35 11 0 20 5 20 10 0 6 18 10 40
10 22 0 40 -4 40 -10 0 -5 -9 -10 -20 -10 -13 0 -20 -7 -20 -20 0 -11 5 -20
11 -20 6 0 9 7 5 15 -3 10 1 15 12 15 29 0 37 -17 33 -67 -3 -36 -6 -43 -12
-28 -6 16 -8 12 -8 -17 -1 -21 -6 -38 -12 -38 -8 0 -10 -16 -6 -53 4 -33 1
-69 -8 -100 -8 -26 -12 -61 -9 -76 6 -28 -14 -144 -43 -251 -8 -30 -32 -125
-54 -210 -22 -85 -42 -163 -45 -172 -5 -17 69 -18 1453 -18 l1459 0 51 137
c56 150 126 363 168 513 15 52 37 129 51 170 13 41 44 154 68 250 36 142 49
178 68 190 12 8 60 43 106 78 46 35 86 62 88 59 2 -2 -2 -23 -10 -48 -7 -24
-21 -71 -29 -104 -42 -165 -124 -444 -163 -555 -78 -223 -222 -578 -258 -635
-34 -54 -32 -55 63 -55 l88 0 7 40 c3 22 17 68 30 103 13 34 36 109 52 167 15
58 35 130 45 160 26 81 84 269 123 400 29 97 37 114 53 112 10 -2 54 -30 98
-61 203 -147 461 -276 512 -257 8 3 34 49 59 101 40 84 47 94 64 85 10 -5 28
-10 39 -10 11 0 22 -8 26 -19 10 -33 105 -184 146 -233 l39 -47 -10 -68 c-27
-180 -60 -421 -60 -445 l0 -28 289 0 289 0 -19 68 c-10 37 -50 161 -89 277
-38 115 -70 212 -70 216 0 3 11 11 25 17 37 17 93 144 135 310 6 23 14 42 18
42 4 0 18 -17 31 -38 55 -85 134 -182 148 -182 21 0 109 76 218 188 125 131
195 237 195 301 0 14 4 32 9 40 7 11 24 -15 64 -95 29 -60 74 -145 99 -189 37
-66 150 -288 350 -690 17 -33 38 -71 47 -85 10 -14 32 -60 51 -103 l33 -77 58
0 58 0 -16 38 c-24 59 -199 406 -248 492 -25 44 -45 81 -45 84 0 3 -30 56 -66
118 -37 62 -75 129 -86 148 -11 19 -29 47 -40 62 -10 15 -28 49 -40 75 -11 26
-34 67 -49 90 -16 23 -29 46 -29 52 0 6 -4 11 -9 11 -13 0 -211 323 -211 344
0 2 46 -20 103 -48 56 -29 132 -65 170 -80 68 -29 123 -78 110 -99 -3 -7 -3
-9 2 -5 4 4 43 -63 86 -150 44 -86 94 -184 112 -217 17 -33 72 -145 121 -250
49 -104 108 -230 132 -280 23 -49 63 -135 88 -190 26 -55 56 -121 69 -147 l22
-48 1317 0 1318 0 0 889 c0 1003 9 903 -84 931 -43 13 -52 20 -54 41 -3 22 3
29 37 42 22 9 45 26 51 37 10 18 7 24 -14 41 -45 36 -28 79 31 79 l33 0 0 70
c0 63 -9 86 -24 61 -13 -21 -208 -29 -264 -10 -57 19 -62 6 -62 -154 0 -77 -2
-138 -5 -135 -11 10 -67 551 -68 658 -1 104 1 119 22 155 27 46 38 55 67 55
12 0 27 7 34 15 7 8 16 12 21 10 4 -3 23 7 41 23 18 16 44 35 57 42 29 15 89
16 104 1 6 -6 26 -11 44 -11 l33 0 0 663 0 663 -53 27 c-30 15 -57 27 -61 27
-4 0 -19 9 -35 21 -25 19 -27 24 -21 70 8 64 29 81 94 76 41 -4 49 -1 53 14 3
11 9 19 14 19 5 0 9 41 9 90 0 85 -1 90 -21 90 -11 0 -40 16 -63 35 -24 19
-50 35 -60 35 -9 0 -16 4 -16 10 0 5 -11 12 -25 16 -14 3 -22 10 -19 15 5 8
-19 13 -56 10 -10 0 -11 1 -3 5 19 8 16 27 -3 20 -14 -5 -15 -4 -4 9 7 8 17
12 23 8 6 -4 7 -1 3 6 -5 7 -1 20 7 29 23 26 57 91 57 108 0 8 5 12 10 9 7 -4
9 3 5 22 -4 15 -3 24 2 18 12 -15 51 -35 68 -35 8 0 15 9 15 20 0 11 -4 20
-10 20 -5 0 -10 14 -10 30 0 26 -3 30 -29 30 -30 0 -41 18 -41 68 0 49 -61
212 -87 234 -18 14 -16 43 3 63 9 9 14 18 11 21 -3 3 0 20 7 37 8 20 14 85 15
167 2 150 -10 214 -54 293 -15 26 -25 50 -22 53 3 3 8 -4 12 -15 3 -12 10 -21
15 -21 5 0 5 11 -1 24 -16 34 -4 76 22 76 21 0 49 22 49 38 0 5 -7 15 -15 22
-12 10 -14 24 -9 55 6 41 5 42 -33 61 -31 15 -63 19 -172 21 l-135 2 -27 108
c-39 155 -157 499 -214 628 -8 17 -25 57 -38 90 -67 161 -97 228 -245 535 -63
130 -243 404 -327 498 l-47 52 75 0 c49 0 79 4 83 12 21 34 -10 147 -76 278
-38 76 -40 62 33 310 41 142 60 221 102 410 43 192 57 359 61 733 l5 367 -233
0 -234 0 -12 -114 c-6 -62 -21 -167 -32 -233 -11 -67 -18 -127 -15 -134 3 -8
39 -32 80 -54 41 -22 77 -45 79 -52 7 -17 -58 -156 -102 -222 -20 -29 -45 -68
-55 -85 -11 -17 -31 -44 -46 -61 -40 -43 -44 -62 -22 -99 28 -44 62 -134 52
-138 -4 -2 -4 -14 0 -28 l7 -25 2 25 c1 20 7 13 31 -35 17 -33 31 -72 32 -87
1 -14 4 -25 7 -23 4 2 11 -5 18 -16 10 -16 9 -19 -5 -20 -10 -1 -22 0 -28 1
-5 2 -22 2 -36 1 -15 0 -42 6 -62 14 -20 8 -43 12 -51 9 -9 -3 -16 -1 -16 5 0
6 -9 3 -20 -6 -21 -18 -27 -59 -10 -65 27 -9 16 -143 -33 -385 l-12 -63 -50
61 c-27 34 -74 84 -103 112 -30 29 -50 57 -47 65 3 8 0 10 -6 6 -13 -7 -181
155 -173 168 3 4 -3 5 -12 1 -14 -5 -16 -3 -11 11 4 11 3 15 -4 10 -6 -4 -14
-3 -18 2 -32 45 -427 347 -591 452 -184 118 -340 206 -503 283 -76 36 -113 59
-72 46 20 -7 20 -7 1 8 -19 15 -19 15 5 15 24 1 51 28 63 66 5 18 17 22 81 27
100 9 156 23 242 63 51 23 76 41 85 59 11 24 9 29 -24 59 -19 18 -50 38 -69
46 -51 20 -53 25 -20 59 17 17 38 43 47 56 9 14 20 22 25 19 5 -3 9 3 9 13 0
10 17 37 38 59 20 23 47 60 60 83 l23 41 -509 0 -509 0 -76 -60 c-95 -75 -318
-290 -377 -364 -42 -52 -47 -55 -100 -61 -297 -34 -547 -103 -778 -216 l-94
-46 -90 35 c-114 42 -230 68 -377 82 l-115 12 -100 88 c-110 96 -324 279 -508
433 l-116 97 -387 -2 -388 -3 79 -102 c44 -57 90 -121 104 -144 14 -22 44 -62
67 -87 23 -26 42 -49 43 -52 0 -3 -32 -19 -70 -37 -80 -36 -96 -64 -64 -109
11 -15 24 -34 29 -42 18 -27 90 -91 102 -92 6 0 18 -6 25 -12 20 -19 50 -37
79 -48 116 -47 123 -70 31 -112 -37 -17 -99 -46 -139 -64 -39 -19 -76 -34 -81
-34 -5 0 -15 -6 -21 -14 -7 -8 -24 -17 -38 -21 -14 -3 -45 -19 -67 -34 -23
-15 -72 -45 -111 -66 -70 -38 -264 -165 -381 -249 -34 -25 -65 -43 -68 -40 -3
2 -4 1 -1 -3 3 -3 -10 -16 -28 -28 -22 -16 -34 -19 -39 -11 -5 6 -8 3 -8 -10
0 -21 -30 -52 -82 -83 -16 -11 -36 -28 -44 -40 -9 -12 -21 -18 -27 -15 -7 4
-9 4 -5 -1 10 -10 -10 -35 -28 -35 -8 0 -11 6 -7 18 8 22 -1 14 -16 -15 -10
-20 -9 -22 6 -17 16 5 16 4 -1 -10 -10 -8 -23 -13 -28 -10 -5 3 -8 0 -6 -8 2
-8 -9 -26 -24 -41 -27 -27 -45 -36 -33 -17 3 6 1 10 -5 10 -7 0 -9 -8 -5 -20
6 -19 -8 -29 -18 -12 -2 4 -2 1 -1 -6 4 -16 -36 -63 -48 -56 -4 3 -8 -2 -8
-11 0 -10 -5 -13 -12 -9 -6 4 -8 3 -5 -2 7 -12 -71 -99 -96 -107 -10 -4 -16
-11 -13 -15 3 -5 -13 -28 -35 -53 -22 -24 -50 -57 -62 -73 -12 -16 -29 -36
-37 -46 -8 -9 -20 -25 -26 -36 -6 -10 -15 -18 -20 -17 -13 4 -18 253 -5 253
16 0 13 32 -4 56 -8 12 -11 24 -8 28 3 3 1 6 -5 6 -7 0 -12 -4 -12 -10 0 -5
-7 -10 -15 -10 -8 0 -43 -28 -77 -62 -35 -36 -63 -58 -65 -51 -6 16 34 218 47
243 5 10 10 28 10 40 0 13 4 19 11 14 8 -4 9 1 4 16 -6 20 19 107 35 120 3 3
3 19 -1 35 -4 17 -7 22 -8 13 -1 -15 -4 -15 -28 -2 -16 7 -33 14 -39 14 -22 0
-194 192 -194 217 0 8 151 93 165 93 1 0 15 -11 31 -25 l28 -24 23 21 c23 22
33 88 13 88 -20 0 -90 90 -90 116 0 6 27 17 60 24 100 21 94 3 92 276 -1 131
-5 332 -9 447 l-6 207 -216 0 -216 0 -23 -237z m5804 -1443 c41 -54 83 -108
147 -190 7 -8 55 -67 108 -130 172 -206 357 -486 336 -506 -3 -3 -22 2 -42 10
-69 29 -89 23 -164 -53 -37 -38 -87 -81 -110 -95 -81 -52 -236 -96 -334 -96
l-53 0 -43 118 c-83 224 -92 247 -118 307 -33 79 -168 339 -227 438 -25 43
-46 79 -46 80 0 1 37 3 83 4 105 4 201 27 252 61 54 37 107 108 105 141 -1 14
-2 30 -1 34 1 9 39 -34 107 -123z m1123 37 c27 -29 41 -50 36 -58 -6 -8 -4
-10 4 -4 14 8 63 -33 55 -47 -3 -5 0 -7 8 -6 7 2 12 -5 12 -14 -1 -10 2 -15 8
-12 5 3 18 -5 29 -18 11 -12 42 -45 68 -73 26 -27 62 -70 81 -95 19 -24 46
-54 58 -67 13 -12 21 -27 17 -33 -3 -6 -2 -9 3 -8 9 3 82 -84 82 -97 0 -3 9
-15 20 -27 10 -12 17 -25 14 -30 -3 -4 1 -8 8 -8 7 0 20 -11 28 -24 8 -13 49
-73 90 -132 41 -60 84 -127 96 -149 11 -22 41 -74 66 -115 95 -157 158 -267
158 -274 0 -29 -182 147 -313 304 -40 47 -117 137 -172 200 -55 64 -122 143
-150 175 -86 102 -212 238 -344 370 -64 65 -82 89 -76 102 4 10 10 64 13 120
l5 103 26 -19 c14 -11 46 -40 70 -64z m-111 -240 c19 -23 55 -64 81 -92 50
-52 102 -112 186 -209 28 -33 66 -78 86 -100 93 -107 299 -392 299 -414 0 -26
-117 -116 -210 -161 -49 -24 -173 -51 -231 -51 -30 0 -43 7 -68 35 -17 19 -37
48 -46 65 -21 40 -114 182 -203 310 -25 36 -55 79 -67 95 -11 17 -45 64 -76
105 -74 100 -159 228 -159 239 0 5 -3 11 -7 13 -5 2 -26 30 -48 63 -22 33 -42
62 -45 65 -38 37 -35 38 98 32 135 -5 281 10 323 33 38 21 52 17 87 -28z
m-5002 -35 c20 -13 34 -50 34 -91 0 -50 16 -86 47 -106 24 -16 18 -17 190 25
32 8 32 7 27 -24 -3 -17 -10 -44 -16 -61 -5 -16 -14 -43 -18 -60 -4 -16 -17
-64 -28 -105 -25 -92 -85 -421 -95 -520 -2 -23 -5 -25 -52 -22 -141 9 -278 73
-459 216 -33 26 -36 33 -30 60 9 43 70 189 109 261 18 33 51 96 75 140 23 44
47 87 54 95 7 8 21 32 31 53 11 20 23 37 28 37 4 0 13 12 20 28 12 28 56 82
66 82 3 0 11 -4 17 -8z m1188 -21 c9 -10 17 -27 18 -37 1 -46 -64 -542 -76
-579 -2 -5 -6 -17 -9 -25 -3 -8 -14 -42 -25 -75 -29 -86 -45 -125 -53 -125
-12 0 -17 186 -8 315 10 147 47 356 80 458 31 94 41 103 73 68z m1692 -26 c83
-127 261 -735 215 -735 -13 0 -141 171 -169 226 -42 82 -73 173 -92 264 -20
99 -29 238 -16 258 12 20 45 13 62 -13z m-1322 -149 c61 -9 121 -18 135 -21
15 -3 97 -10 183 -17 169 -13 451 -1 591 24 79 14 80 14 98 -72 12 -57 73
-270 88 -305 5 -11 14 -33 21 -50 7 -16 19 -48 26 -70 7 -22 22 -64 32 -93
l20 -52 -41 -34 c-62 -51 -187 -122 -285 -162 -70 -29 -99 -36 -149 -36 -101
2 -336 67 -488 136 -138 63 -276 135 -332 173 -56 38 -65 41 -88 31 -14 -6
-28 -8 -33 -4 -20 20 -11 367 14 539 l6 39 47 -5 c25 -3 95 -12 155 -21z
m-2696 -114 c2 -108 1 -122 -25 -182 -15 -36 -33 -71 -40 -78 -7 -7 -13 -17
-13 -22 0 -5 -6 -15 -12 -22 -14 -14 -250 -484 -267 -530 -6 -16 -15 -28 -21
-28 -5 0 -10 -8 -10 -18 0 -22 -22 -72 -32 -72 -5 0 -8 -12 -8 -27 0 -16 -9
-48 -20 -72 -11 -24 -20 -50 -20 -57 0 -8 -4 -22 -10 -32 -15 -28 -40 -128
-40 -164 0 -38 -13 -63 -28 -54 -12 7 -115 -39 -132 -59 -7 -8 -18 -15 -24
-15 -18 -1 -96 -78 -161 -160 -33 -41 -63 -76 -67 -78 -5 -2 -8 -10 -8 -17 0
-8 -6 -18 -13 -22 -7 -4 -37 -47 -66 -95 -28 -48 -56 -90 -61 -93 -11 -7 -2
50 11 77 5 9 9 29 9 45 0 22 2 25 10 13 8 -13 10 -12 11 5 1 11 2 25 4 30 1 6
3 19 4 30 1 17 3 18 12 5 8 -12 9 -10 4 9 -4 13 -2 33 3 45 6 11 23 57 38 101
14 44 35 98 45 120 10 22 25 61 35 87 9 26 19 46 23 44 3 -2 7 6 7 17 3 38 57
158 66 144 4 -6 8 -9 8 -5 0 3 3 14 7 24 4 12 3 15 -5 10 -8 -5 -10 -2 -6 8 3
9 10 16 14 16 4 0 10 14 14 31 4 20 10 28 17 23 7 -4 9 -3 6 3 -3 5 1 22 9 37
7 16 14 32 14 38 0 5 4 14 10 21 5 7 35 62 66 122 31 61 65 121 75 134 11 13
19 28 19 33 0 5 14 29 30 53 17 24 30 47 30 51 0 4 11 22 25 40 14 18 25 36
25 39 0 8 108 163 130 186 8 9 20 24 27 35 6 10 16 18 23 16 6 -1 9 2 6 7 -5
8 68 113 141 202 22 26 105 119 107 119 0 0 2 -53 4 -118z m47 -326 c48 -37
192 -60 318 -52 53 4 97 4 97 1 0 -9 -79 -167 -90 -180 -4 -5 -34 -59 -65
-120 -110 -215 -177 -341 -226 -427 -27 -49 -49 -91 -49 -95 -1 -5 -12 -21
-25 -38 l-25 -30 -140 -3 c-127 -3 -145 -1 -181 17 -22 12 -46 21 -53 21 -24
0 27 168 121 400 55 136 66 160 75 160 4 0 8 9 8 19 0 11 5 23 10 26 6 4 8 11
5 16 -4 5 -2 9 3 9 5 0 12 8 16 18 3 9 19 40 36 67 16 28 35 61 41 75 5 14 19
34 29 45 11 11 26 37 35 58 8 20 18 37 22 37 3 0 21 -11 38 -24z m4905 -991
c34 -55 93 -139 130 -186 l68 -87 -109 -7 c-60 -4 -112 -7 -116 -8 -5 -1 -9
16 -10 38 -5 85 -24 292 -30 325 -7 44 -8 45 67 -75z m-3190 -205 c19 -110 67
-317 85 -361 5 -14 -9 -17 -107 -23 -62 -4 -130 -9 -150 -13 -29 -4 -38 -2
-38 9 0 17 157 483 172 512 14 25 13 29 38 -124z m3389 -150 l68 0 106 -84
c58 -46 141 -103 184 -127 l78 -44 -170 -6 c-148 -6 -180 -10 -250 -34 -94
-31 -183 -79 -255 -136 -28 -22 -53 -39 -56 -37 -2 3 5 32 16 64 12 36 28 130
38 230 l17 169 65 6 c36 3 71 4 78 2 8 -2 44 -3 81 -3z m-3279 -309 c0 -17
126 -230 177 -299 93 -127 213 -225 233 -192 5 9 3 28 -7 49 -31 71 -53 131
-48 131 3 0 25 -31 49 -68 60 -93 91 -117 178 -136 251 -54 782 -48 1211 14
261 38 636 119 802 175 119 39 234 84 260 101 20 13 25 13 25 3 -1 -30 -67
-143 -148 -254 -18 -25 -30 -45 -27 -45 3 0 31 23 61 52 30 28 57 49 60 46 3
-3 -4 -46 -16 -94 -24 -100 -39 -279 -23 -273 11 4 159 188 186 232 37 57 316
213 427 238 104 23 307 18 410 -10 138 -36 310 -127 471 -248 106 -80 322
-297 446 -449 178 -218 177 -216 194 -325 46 -309 -23 -806 -177 -1268 -59
-173 -129 -342 -165 -392 -12 -17 -18 -33 -14 -37 10 -10 121 51 198 109 86
65 260 237 357 353 l74 89 9 -33 c17 -67 -33 -545 -62 -593 -25 -41 -216 -232
-291 -291 -36 -29 -100 -74 -143 -102 -43 -27 -104 -68 -137 -92 -76 -56 -306
-169 -575 -284 -102 -43 -308 -122 -480 -183 -82 -29 -260 -94 -395 -143 -135
-50 -257 -92 -270 -94 -19 -2 -30 -18 -56 -76 -17 -41 -40 -82 -50 -91 -11
-10 -120 -62 -244 -116 -299 -132 -342 -154 -358 -188 -7 -15 -17 -27 -21 -27
-4 0 -34 11 -67 24 -82 34 -173 56 -495 120 -151 30 -292 61 -311 68 -23 8
-55 36 -89 76 l-54 64 -105 4 c-339 13 -1321 109 -1490 145 -187 40 -438 147
-718 306 -192 109 -184 101 -350 310 l-49 62 -62 253 c-74 302 -73 298 -66
298 3 0 47 -28 98 -63 116 -80 202 -127 298 -165 82 -33 190 -64 198 -57 2 3
-16 31 -41 62 -146 187 -291 477 -393 788 -46 141 -54 174 -59 231 -2 27 -14
85 -26 129 -12 45 -24 126 -27 187 l-6 108 66 132 c108 221 253 424 418 590
129 129 286 236 464 316 177 79 241 94 415 95 165 1 227 -11 350 -70 67 -32
121 -64 325 -194 32 -21 61 -36 63 -34 4 4 -30 74 -121 245 -21 41 -56 92 -76
113 -34 36 -34 38 -9 28 14 -5 58 -26 97 -45 39 -20 73 -36 76 -36 16 0 -37
68 -92 120 -61 57 -192 143 -275 180 -74 32 -207 50 -379 50 -88 0 -159 3
-159 8 0 4 22 40 49 81 27 41 66 114 87 162 42 101 42 102 189 119 142 17 205
18 205 1z m4435 -166 c85 -19 302 -45 367 -45 36 0 48 -4 52 -17 6 -20 50
-317 61 -408 l7 -60 -131 135 -132 135 38 30 c74 59 134 118 130 129 -2 7 -49
10 -144 8 -154 -4 -150 -5 -279 73 -67 40 -66 40 31 20z m-6242 -564 c68 -51
159 -95 227 -111 30 -7 61 -16 68 -19 7 -4 -49 -13 -125 -20 -76 -6 -159 -15
-185 -18 l-48 -6 0 107 c0 58 2 106 5 106 3 0 29 -18 58 -39z m-43 -241 c0
-11 80 -65 163 -110 l47 -27 -97 -146 c-81 -121 -99 -142 -105 -126 -4 11 -10
91 -13 177 -3 86 -8 176 -10 200 -3 24 0 42 5 42 6 0 10 -5 10 -10z m8342
-1190 c29 -13 108 -157 92 -168 -6 -4 -13 -15 -17 -24 -6 -18 -72 -32 -122
-26 -22 2 -35 13 -52 43 -24 42 -31 119 -12 130 5 4 14 18 19 31 10 27 50 33
92 14z m-189 -699 c16 -1 26 -5 22 -11 -3 -5 2 -10 13 -10 32 0 53 -68 33
-108 -5 -9 -17 -35 -27 -56 -24 -49 -65 -64 -117 -42 -30 12 -35 19 -40 61 -4
26 -6 69 -6 94 2 32 3 37 6 17 l5 -29 13 24 c8 13 19 34 24 46 6 13 17 20 28
18 10 -2 31 -4 46 -4z m-9116 -313 c-3 -8 -6 -5 -6 6 -1 11 2 17 5 13 3 -3 4
-12 1 -19z m5766 -1404 c74 -123 78 -131 73 -177 -10 -91 -99 -231 -255 -397
-91 -98 -131 -129 -131 -101 0 22 -268 380 -318 425 -21 19 -22 18 -69 -34
-27 -29 -54 -61 -61 -72 -11 -15 -27 -18 -100 -18 l-87 0 -47 65 c-26 36 -52
65 -58 65 -26 0 -19 -34 19 -88 23 -32 41 -63 41 -69 0 -6 -13 -16 -30 -23
-16 -7 -62 -34 -101 -61 -114 -79 -121 -70 -49 69 33 64 60 121 60 125 0 20
-28 2 -56 -36 -30 -39 -162 -294 -197 -379 -9 -21 -20 -38 -24 -38 -29 0 -264
130 -348 193 -164 122 -225 198 -225 280 0 79 89 317 119 317 5 0 14 -7 21
-15 10 -12 10 -19 2 -27 -26 -26 3 -86 35 -74 7 3 69 -8 136 -25 67 -16 203
-45 302 -64 313 -61 338 -66 413 -96 96 -38 121 -37 165 4 19 19 49 40 66 47
17 7 31 16 31 20 0 4 15 13 33 20 181 72 474 209 522 245 30 23 33 30 23 43
-11 13 -10 14 2 10 8 -2 49 -63 93 -134z m605 -178 c85 -44 394 -160 627 -236
215 -70 234 -77 280 -108 44 -31 91 -100 101 -149 6 -28 4 -33 -13 -33 -20 0
-308 73 -423 107 -108 33 -342 123 -400 155 -119 66 -243 187 -296 290 l-14
27 53 -18 c30 -11 68 -26 85 -35z m-2879 -148 c-16 -51 -35 -98 -42 -104 -22
-23 -420 -222 -563 -283 -231 -98 -454 -167 -502 -155 -18 5 -22 13 -22 45 0
22 7 56 15 75 13 31 27 41 117 83 111 52 379 161 396 161 38 0 594 238 608
261 3 5 9 9 13 9 5 0 -4 -41 -20 -92z m1681 -50 c30 -40 58 -79 63 -86 22 -28
-5 -21 -70 18 -37 22 -78 43 -90 46 -13 4 -23 8 -23 11 0 4 62 83 65 83 1 0
26 -33 55 -72z"/>
<path d="M7110 5674 c-79 -9 -148 -29 -210 -61 -115 -59 -157 -98 -226 -213
-35 -57 -64 -114 -64 -126 0 -36 25 -35 61 3 67 71 170 92 274 57 54 -19 125
-83 125 -115 0 -60 -53 -89 -162 -89 -107 0 -230 39 -267 84 -30 35 -33 16
-28 -141 6 -177 25 -267 82 -388 63 -131 160 -266 187 -258 4 2 17 -11 28 -27
24 -34 105 -82 87 -52 -3 4 2 13 11 21 14 13 15 12 9 -16 -6 -29 -4 -32 23
-38 16 -4 35 -3 41 1 7 4 9 3 6 -3 -4 -6 0 -14 9 -17 21 -8 26 -8 20 3 -4 5
10 5 31 0 44 -9 56 -4 22 10 -13 5 -19 10 -13 10 7 1 10 17 8 43 -4 47 -14 65
-14 25 0 -15 -5 -27 -11 -27 -8 0 -10 15 -5 46 3 26 6 70 6 99 0 46 3 53 26
63 14 7 22 17 19 22 -14 22 24 12 126 -33 57 -26 57 -26 92 -7 19 10 38 16 41
13 3 -4 6 0 6 8 0 9 9 25 20 37 11 12 20 27 20 34 0 8 3 9 8 3 4 -6 21 -10 37
-9 42 2 76 -6 69 -18 -3 -5 -11 -4 -20 2 -7 7 -19 10 -25 8 -7 -2 3 -14 22
-25 25 -16 36 -19 41 -10 5 8 8 4 8 -10 0 -14 6 -23 16 -23 9 0 12 -5 8 -12
-5 -8 -2 -9 9 -5 11 4 17 1 17 -7 0 -15 50 -96 59 -96 4 0 5 -21 3 -46 -9
-109 -130 -147 -188 -59 -9 14 -20 22 -25 19 -5 -3 -9 0 -9 5 0 12 -52 15 -63
4 -4 -3 -1 -13 6 -22 8 -9 19 -35 26 -58 l12 -43 79 0 c53 0 80 4 84 13 5 9 7
9 12 -1 5 -10 46 -12 175 -12 93 1 171 6 175 11 3 5 0 9 -7 9 -8 0 -7 5 2 17
12 14 12 16 -1 11 -12 -4 -15 4 -16 40 0 38 1 41 9 21 5 -13 15 -37 22 -52
l12 -29 22 31 c106 148 83 398 -62 683 -112 220 -254 395 -444 547 -129 102
-311 161 -453 145z m407 -956 c-3 -7 -5 -2 -5 12 0 14 2 19 5 13 2 -7 2 -19 0
-25z m-597 -28 c0 -5 -5 -10 -11 -10 -5 0 -7 5 -4 10 3 6 8 10 11 10 2 0 4 -4
4 -10z m140 -4 c0 -8 7 -16 15 -20 8 -3 15 -13 15 -22 0 -13 -6 -11 -25 10
-26 28 -32 46 -15 46 6 0 10 -6 10 -14z m-110 -11 c0 -8 -4 -15 -10 -15 -5 0
-10 7 -10 15 0 8 5 15 10 15 6 0 10 -7 10 -15z m165 -15 c10 -11 13 -20 7 -20
-6 0 -16 9 -22 20 -6 11 -9 20 -7 20 2 0 12 -9 22 -20z m-191 -21 c-7 -12 -54
-12 -54 1 0 5 7 7 15 4 8 -4 15 -1 15 5 0 6 7 8 15 5 8 -4 12 -10 9 -15z m896
-9 c0 -5 -2 -10 -4 -10 -3 0 -8 5 -11 10 -3 6 -1 10 4 10 6 0 11 -4 11 -10z
m-867 -27 c-7 -2 -19 -2 -25 0 -7 3 -2 5 12 5 14 0 19 -2 13 -5z m-96 -25 c-3
-8 -6 -5 -6 6 -1 11 2 17 5 13 3 -3 4 -12 1 -19z m265 -50 c-9 -9 -12 -7 -12
12 0 19 3 21 12 12 9 -9 9 -15 0 -24z m-242 0 c0 -4 -7 -8 -15 -8 -8 0 -15 4
-15 8 0 5 7 9 15 9 8 0 15 -4 15 -9z m1025 2 c3 -5 1 -10 -4 -10 -6 0 -11 5
-11 10 0 6 2 10 4 10 3 0 8 -4 11 -10z m45 -60 c6 -11 8 -20 6 -20 -3 0 -10 9
-16 20 -6 11 -8 20 -6 20 3 0 10 -9 16 -20z m-1072 -17 c1 -22 0 -24 -8 -13
-12 18 -13 40 -2 40 4 0 9 -12 10 -27z m112 -4 c0 -3 -11 -18 -24 -32 -24 -26
-24 -26 -46 -7 -23 20 -18 45 6 36 8 -3 14 -1 14 4 0 6 7 10 15 10 8 0 15 6
15 13 0 12 20 -11 20 -24z m760 -129 c0 -5 -5 -10 -11 -10 -5 0 -7 5 -4 10 3
6 8 10 11 10 2 0 4 -4 4 -10z m-25 -40 c-3 -5 -13 -10 -21 -10 -8 0 -12 5 -9
10 3 6 13 10 21 10 8 0 12 -4 9 -10z"/>
<path d="M3195 5259 c-247 -31 -464 -154 -621 -352 -115 -145 -153 -231 -194
-434 -29 -141 -32 -357 -7 -453 41 -157 151 -318 250 -365 33 -15 46 -16 120
-5 110 15 285 55 377 85 67 22 71 24 35 23 -22 -1 -58 -1 -80 0 l-40 2 31 19
c55 33 48 42 -10 14 -60 -31 -57 -42 14 -43 40 -1 42 -2 21 -11 -26 -10 -78
-3 -98 13 -10 8 -13 5 -13 -12 0 -19 4 -21 33 -16 29 5 30 5 6 -4 -18 -8 -36
-6 -65 4 -28 11 -33 15 -17 15 22 1 22 2 6 20 -9 11 -21 18 -25 14 -11 -6 -38
28 -31 40 2 4 -1 21 -9 37 -13 29 -15 30 -85 30 -66 0 -73 2 -73 20 0 18 7 20
75 20 l75 0 0 36 c0 19 4 33 9 29 12 -7 25 31 16 45 -3 6 0 13 8 16 15 5 19
34 5 34 -5 0 -6 5 -3 11 4 6 14 8 22 5 19 -8 45 12 36 27 -4 6 -1 7 7 2 10 -6
12 -4 7 8 -3 10 -2 17 3 17 6 0 10 -4 10 -9 0 -5 17 -11 38 -15 20 -3 52 -16
71 -28 19 -13 43 -28 53 -34 16 -10 17 -12 4 -17 -12 -5 -16 -20 -15 -59 1
-29 4 -44 6 -33 3 11 9 22 13 25 4 3 11 27 16 54 l9 50 51 11 c29 6 73 26 100
43 51 35 65 39 61 20 -1 -7 6 -12 16 -12 10 1 17 -5 17 -15 0 -9 4 -21 9 -26
17 -18 41 -118 41 -171 0 -38 4 -53 16 -58 22 -8 26 -8 19 4 -3 6 0 11 7 11 7
1 24 3 38 4 13 1 26 8 28 14 2 6 8 8 14 5 6 -4 8 2 4 17 -3 13 -3 18 0 12 3
-7 10 -13 15 -13 10 0 71 56 70 64 -3 24 0 30 7 18 6 -8 13 -1 25 23 9 20 17
42 17 49 0 8 7 19 15 26 9 8 13 22 10 39 -3 14 -2 20 1 14 16 -34 34 1 59 108
38 169 28 308 -35 479 -39 105 -68 161 -136 261 -104 154 -199 233 -303 250
-62 10 -58 10 -156 -2z m-466 -495 c77 -16 106 -93 56 -152 -28 -34 -105 -70
-168 -78 -34 -5 -54 -1 -93 19 -76 39 -81 48 -50 101 52 90 149 131 255 110z
m811 -398 c0 -5 -7 -3 -15 4 -12 10 -15 10 -15 0 0 -8 -2 -11 -5 -9 -2 3 -2
15 2 27 5 21 6 21 19 5 7 -10 14 -22 14 -27z m90 -17 c0 -14 -17 -10 -23 5 -4
10 -1 13 9 9 7 -3 14 -9 14 -14z m-130 -41 c0 -5 -4 -8 -10 -8 -5 0 -10 10
-10 23 0 18 2 19 10 7 5 -8 10 -18 10 -22z m160 -2 c0 -8 -4 -18 -10 -21 -5
-3 -10 3 -10 14 0 12 5 21 10 21 6 0 10 -6 10 -14z m-155 -36 c-10 -11 -23
-20 -28 -20 -6 0 0 11 13 25 27 29 42 25 15 -5z m195 9 c0 -5 -4 -9 -10 -9 -5
0 -10 7 -10 16 0 8 5 12 10 9 6 -3 10 -10 10 -16z m22 -54 c-4 -23 -32 -37
-32 -16 0 5 -3 17 -6 25 -5 12 -2 15 10 10 9 -3 16 -1 16 6 0 6 4 9 9 6 4 -3
6 -17 3 -31z m-902 7 c0 -9 -10 -22 -22 -27 -17 -8 -22 -18 -21 -38 1 -21 -2
-27 -12 -23 -8 3 -17 1 -20 -4 -3 -6 -14 -14 -25 -20 -16 -9 -17 -7 -6 15 6
14 17 25 24 25 6 0 12 4 12 9 0 8 60 80 68 81 1 0 2 -8 2 -18z m74 -7 c-4 -8
-8 -15 -10 -15 -2 0 -4 7 -4 15 0 8 4 15 10 15 5 0 7 -7 4 -15z m56 -37 l23
-33 -26 24 c-15 14 -27 28 -27 33 0 14 5 9 30 -24z m466 4 c-18 -16 -18 -16
-6 6 6 13 14 21 18 18 3 -4 -2 -14 -12 -24z m-529 -104 c-3 -7 -5 -2 -5 12 0
14 2 19 5 13 2 -7 2 -19 0 -25z m-157 -8 c0 -5 -4 -10 -10 -10 -5 0 -10 5 -10
10 0 6 5 10 10 10 6 0 10 -4 10 -10z m747 -22 c-3 -8 -6 -5 -6 6 -1 11 2 17 5
13 3 -3 4 -12 1 -19z m-807 -13 c0 -8 -4 -15 -10 -15 -5 0 -7 7 -4 15 4 8 8
15 10 15 2 0 4 -7 4 -15z m1042 -7 c-7 -7 -12 -8 -12 -2 0 6 3 14 7 17 3 4 9
5 12 2 2 -3 -1 -11 -7 -17z m-56 -54 c-3 -9 -6 -20 -6 -25 0 -5 -7 -9 -15 -9
-8 0 -15 5 -15 10 0 6 5 10 10 10 6 0 10 7 10 15 0 8 5 15 11 15 6 0 8 -7 5
-16z m-136 -4 c0 -5 -2 -10 -4 -10 -3 0 -8 5 -11 10 -3 6 -1 10 4 10 6 0 11
-4 11 -10z m100 6 c0 -3 -4 -8 -10 -11 -5 -3 -10 -1 -10 4 0 6 5 11 10 11 6 0
10 -2 10 -4z m-997 -38 c-3 -16 -9 -28 -14 -28 -4 0 -3 14 3 31 12 36 18 35
11 -3z m27 -44 c0 -10 6 -14 15 -10 22 8 18 -2 -6 -15 -15 -8 -19 -8 -15 0 4
6 0 11 -8 11 -17 0 -21 12 -9 23 11 12 23 7 23 -9z m-54 -117 c-2 -35 -1 -68
2 -73 7 -9 90 -34 112 -34 6 0 10 6 10 14 0 22 179 36 210 16 11 -7 1 -10 -35
-11 -37 0 -45 -3 -30 -9 17 -7 16 -9 -10 -10 -39 -3 -70 -7 -125 -18 -32 -6
-57 -5 -83 4 -63 22 -70 36 -63 112 3 37 6 68 6 70 0 1 2 2 5 2 3 0 4 -28 1
-63z m31 16 c-3 -10 -5 -2 -5 17 0 19 2 27 5 18 2 -10 2 -26 0 -35z m-2 -73
c3 -5 1 -10 -4 -10 -6 0 -11 5 -11 10 0 6 2 10 4 10 3 0 8 -4 11 -10z"/>
<path d="M7400 4441 c0 -6 5 -13 10 -16 6 -3 10 1 10 9 0 9 -4 16 -10 16 -5 0
-10 -4 -10 -9z"/>
<path d="M7440 4415 c0 -30 3 -35 23 -34 12 0 16 3 10 6 -7 2 -13 18 -13 34 0
16 -4 29 -10 29 -5 0 -10 -16 -10 -35z"/>
<path d="M7490 4406 c0 -9 5 -16 10 -16 6 0 10 4 10 9 0 6 -4 13 -10 16 -5 3
-10 -1 -10 -9z"/>
<path d="M8142 4300 c-23 -11 -52 -26 -62 -33 -18 -13 -15 -14 32 -9 29 3 63
13 76 23 26 20 50 16 120 -21 56 -30 63 -20 13 17 -23 17 -38 32 -36 35 16 15
-105 5 -143 -12z"/>
<path d="M7185 4270 c3 -5 8 -10 11 -10 2 0 4 5 4 10 0 6 -5 10 -11 10 -5 0
-7 -4 -4 -10z"/>
<path d="M3438 3846 c-21 -12 -41 -26 -45 -30 -14 -15 72 25 87 39 21 21 1 17
-42 -9z"/>
<path d="M3158 3850 c6 -8 12 -24 12 -36 0 -13 10 -30 22 -38 26 -18 38 -20
38 -6 0 6 -9 10 -19 10 -13 0 -21 9 -26 29 -3 16 -14 35 -23 42 -14 11 -15 11
-4 -1z"/>
<path d="M3280 3784 l-45 -14 40 6 c22 3 44 10 50 15 11 11 12 11 -45 -7z"/>
<path d="M2225 3675 c-59 -31 -75 -45 -54 -45 8 0 19 4 25 10 10 10 185 41
196 34 3 -2 2 -19 -3 -37 -5 -17 -9 -35 -9 -40 0 -11 48 3 92 28 l39 22 -38
23 c-28 17 -58 23 -118 27 -72 3 -85 1 -130 -22z"/>
<path d="M5978 3393 c6 -2 18 -2 25 0 6 3 1 5 -13 5 -14 0 -19 -2 -12 -5z"/>
<path d="M3000 9840 c0 -5 5 -10 11 -10 5 0 7 5 4 10 -3 6 -8 10 -11 10 -2 0
-4 -4 -4 -10z"/>
<path d="M3005 9600 c-3 -5 -2 -10 4 -10 5 0 13 5 16 10 3 6 2 10 -4 10 -5 0
-13 -4 -16 -10z"/>
<path d="M9901 9565 c-63 -23 -76 -31 -76 -44 0 -4 -25 -36 -56 -70 l-57 -64
-67 22 c-95 31 -103 26 -97 -57 4 -56 1 -74 -17 -107 l-21 -40 45 -19 c42 -17
45 -21 45 -56 0 -23 -8 -48 -21 -64 -11 -14 -18 -26 -14 -26 3 0 -2 -11 -11
-25 -15 -23 -15 -26 1 -42 16 -16 18 -16 27 0 5 10 13 15 18 12 4 -3 19 6 31
20 13 13 30 25 37 25 6 0 12 5 12 10 0 6 13 10 30 10 22 0 46 -15 96 -60 36
-33 70 -60 75 -60 5 0 9 14 9 30 0 17 6 43 14 58 7 15 16 47 20 72 7 45 7 46
84 82 43 20 94 48 115 62 21 14 41 26 46 26 4 0 16 9 26 20 10 11 24 20 32 20
8 0 13 12 13 35 0 35 0 35 -46 35 -27 0 -43 -4 -39 -10 9 -15 -156 -19 -212
-5 -31 7 -29 24 9 103 18 37 33 72 34 77 1 6 5 17 9 26 10 27 -26 28 -94 4z"/>
<path d="M2894 9559 c-3 -6 -1 -16 5 -22 8 -8 11 -5 11 11 0 24 -5 28 -16 11z"/>
<path d="M8450 9171 c0 -5 6 -14 14 -20 12 -10 13 -8 9 8 -5 21 -23 30 -23 12z"/>
<path d="M8489 9063 c-13 -16 -12 -17 4 -4 9 7 17 15 17 17 0 8 -8 3 -21 -13z"/>
<path d="M1592 8860 c0 -14 2 -19 5 -12 2 6 2 18 0 25 -3 6 -5 1 -5 -13z"/>
<path d="M8356 8871 c-4 -5 -2 -12 3 -15 5 -4 12 -2 15 3 4 5 2 12 -3 15 -5 4
-12 2 -15 -3z"/>
<path d="M55 8860 c-3 -5 -18 -10 -33 -10 -21 0 -24 -2 -12 -10 10 -6 11 -10
3 -10 -10 0 -13 -77 -13 -350 l0 -350 37 -15 c20 -8 45 -13 55 -9 17 5 17 7 3
27 -8 12 -15 36 -15 54 0 31 2 33 34 33 19 0 38 5 41 10 3 6 16 10 28 11 27 0
114 29 142 46 17 11 18 14 5 23 -8 6 -26 13 -40 16 -40 10 -70 33 -70 54 0 18
43 63 222 233 35 33 17 42 -73 40 -93 -3 -138 -13 -217 -49 -55 -25 -97 -31
-107 -14 -13 22 -6 88 14 128 31 60 27 193 -4 142z"/>
<path d="M10052 8718 c-7 -7 -12 -17 -12 -23 0 -7 -11 -18 -25 -25 -14 -7 -25
-17 -25 -22 0 -12 -78 -10 -86 3 -7 12 -18 -5 -54 -81 -16 -35 -20 -58 -17
-108 3 -47 0 -72 -12 -93 -13 -23 -14 -32 -3 -46 17 -24 19 -30 28 -88 7 -41
13 -51 31 -53 29 -4 53 -38 53 -74 0 -48 47 -55 87 -12 28 30 51 30 94 1 19
-12 47 -30 62 -40 l29 -19 -7 24 c-4 12 -13 30 -20 38 -38 46 -26 106 25 126
l38 15 0 152 c0 163 -1 167 -53 167 -39 0 -63 28 -71 82 -7 39 -31 87 -44 88
-4 0 -11 -5 -18 -12z"/>
<path d="M1946 8632 c-4 -13 -5 -26 -2 -29 10 -11 18 4 14 29 l-4 23 -8 -23z"/>
<path d="M8360 8591 c0 -6 4 -13 10 -16 6 -3 7 1 4 9 -7 18 -14 21 -14 7z"/>
<path d="M8200 8543 c0 -5 9 -18 20 -28 11 -10 20 -16 20 -13 0 3 -9 15 -20
28 -11 13 -20 19 -20 13z"/>
<path d="M1551 8314 c0 -11 3 -14 6 -6 3 7 2 16 -1 19 -3 4 -6 -2 -5 -13z"/>
<path d="M60 7510 c-8 -5 -25 -10 -37 -10 -23 0 -23 -2 -23 -112 l1 -113 30
35 c16 19 34 41 40 48 5 6 9 46 7 87 -3 63 -5 73 -18 65z"/>
<path d="M0 7048 l0 -73 44 3 c33 3 45 9 49 23 5 20 -34 79 -70 104 l-23 16 0
-73z"/>
<path d="M238 6673 c-20 -16 -62 -65 -94 -111 -33 -45 -78 -109 -101 -142
l-43 -60 0 -180 c0 -113 4 -180 10 -180 6 0 10 4 10 9 0 5 15 14 33 22 17 7
48 25 67 39 48 37 229 150 240 150 5 0 15 6 22 14 19 18 94 56 100 50 3 -2 11
2 18 11 7 8 19 15 26 15 8 0 14 10 14 25 0 14 -4 25 -10 25 -5 0 -10 11 -10
24 0 36 -23 38 -107 10 -67 -23 -104 -40 -168 -82 -48 -30 -65 -36 -77 -24
-12 12 -4 30 80 185 45 83 68 163 58 203 -8 31 -25 30 -68 -3z"/>
<path d="M10032 5780 c0 -14 2 -19 5 -12 2 6 2 18 0 25 -3 6 -5 1 -5 -13z"/>
</g>
</svg>
