<?xml version="1.0" standalone="no"?>
<!DOCTYPE svg PUBLIC "-//W3C//DTD SVG 20010904//EN"
 "http://www.w3.org/TR/2001/REC-SVG-20010904/DTD/svg10.dtd">
<svg version="1.0" xmlns="http://www.w3.org/2000/svg"
 width="1080.000000pt" height="1080.000000pt" viewBox="0 0 1080.000000 1080.000000"
 preserveAspectRatio="xMidYMid meet">

<g transform="translate(0.000000,1080.000000) scale(0.100000,-0.100000)"
fill="#000000" stroke="none">
<path d="M7315 10731 c-93 -38 -196 -80 -228 -95 -32 -14 -60 -26 -63 -26 -3
0 -2 20 1 44 6 39 4 46 -21 70 -24 21 -31 24 -45 13 -31 -22 -263 -222 -301
-259 l-39 -36 -172 28 c-94 16 -260 38 -367 49 -107 12 -235 27 -285 34 -153
21 -560 15 -760 -12 -794 -103 -1562 -392 -2229 -839 -95 -64 -122 -78 -130
-67 -6 7 -36 21 -66 30 -30 10 -107 42 -170 71 -137 62 -172 70 -184 38 -9
-22 8 -49 80 -125 35 -38 64 -70 64 -72 0 -2 -17 0 -38 5 -20 4 -176 27 -347
51 l-310 42 -655 0 c-360 0 -744 -4 -852 -9 l-198 -8 0 -30 0 -31 68 8 c94 10
1424 22 1553 13 59 -4 198 -19 310 -33 112 -14 256 -32 319 -40 63 -8 134 -17
157 -21 35 -5 44 -3 49 10 9 24 -14 72 -58 123 -21 24 -38 46 -38 49 0 2 17
-3 37 -12 47 -20 191 -79 218 -89 18 -6 17 -9 -15 -33 -238 -183 -623 -571
-855 -862 -278 -349 -593 -877 -734 -1231 l-22 -56 -52 8 c-120 16 -299 77
-705 242 l-232 95 0 -31 0 -32 298 -118 c353 -140 525 -197 610 -205 53 -4 62
-7 57 -21 -26 -67 -102 -309 -131 -416 -36 -140 -78 -372 -90 -497 l-7 -78
-49 0 c-28 0 -156 -18 -286 -40 -130 -23 -246 -39 -257 -38 -16 2 -4 19 65 89
47 47 100 97 117 112 37 29 51 89 22 95 -9 1 -91 -33 -182 -77 -162 -77 -167
-81 -167 -110 0 -17 2 -31 4 -31 2 0 56 27 120 61 l117 61 -90 -92 c-93 -93
-113 -128 -91 -155 21 -25 71 -20 425 39 83 14 172 28 199 32 l48 7 -7 -84
c-3 -46 -10 -178 -15 -294 -24 -546 -32 -783 -28 -937 l3 -167 -60 -16 c-76
-22 -245 -83 -400 -145 -234 -94 -225 -89 -225 -121 l0 -29 38 16 c190 84 599
234 637 234 13 0 15 -19 15 -122 0 -114 13 -440 41 -1048 6 -135 11 -316 12
-402 l0 -158 -49 -57 c-27 -32 -71 -80 -99 -106 -48 -47 -52 -49 -95 -44 -25
2 -53 8 -62 12 -14 6 -22 -3 -39 -41 -11 -27 -22 -69 -25 -94 -29 -318 -29
-323 -67 -349 -11 -9 -46 -29 -76 -46 -64 -35 -75 -57 -96 -208 -13 -92 -17
-104 -74 -197 l-61 -98 0 -249 0 -248 95 -95 95 -95 -95 -132 -95 -133 0 -279
0 -279 31 -11 c18 -6 40 -11 50 -11 37 0 76 -49 119 -149 46 -110 47 -111 154
-111 28 0 64 -7 80 -15 16 -9 55 -15 93 -15 63 0 65 1 59 23 -32 117 -41 203
-40 382 1 269 23 429 139 1005 99 488 106 535 111 800 3 102 8 302 12 445 7
269 3 408 -39 1290 -27 568 -33 1564 -11 1860 7 94 14 233 17 310 17 568 151
1084 420 1621 320 640 708 1143 1280 1660 120 109 172 150 195 156 8 1 87 51
175 109 235 156 327 209 560 324 685 338 1415 525 2060 528 405 2 1038 -85
1510 -208 634 -164 1090 -365 1609 -709 78 -52 155 -106 171 -121 17 -15 72
-58 124 -96 154 -114 256 -203 442 -389 264 -264 466 -528 618 -808 70 -127
86 -162 251 -532 64 -146 164 -364 220 -485 190 -409 283 -631 373 -895 l15
-45 1 82 c1 78 -2 91 -63 248 -35 91 -62 165 -61 165 2 0 27 -33 56 -72 70
-99 69 -98 69 -46 0 41 -7 55 -77 147 -42 55 -84 101 -92 101 -11 0 -49 73
-120 228 -58 125 -111 242 -120 259 -14 31 -13 34 8 52 13 11 53 47 90 80 36
32 96 85 133 117 114 101 149 147 164 217 11 49 13 290 14 1186 0 1070 -1
1123 -17 1109 -36 -31 -46 -31 -25 0 13 17 27 34 32 37 6 4 10 50 10 103 l-1
97 -43 -85 c-41 -82 -94 -181 -101 -189 -5 -5 -65 37 -102 73 -55 51 -42 78
81 167 44 32 100 73 124 90 l42 31 0 189 0 189 -135 0 -135 0 -68 -42 c-136
-85 -395 -280 -487 -365 -11 -10 -90 -77 -175 -148 -161 -134 -400 -347 -459
-409 -19 -20 -38 -36 -42 -36 -4 0 -16 16 -28 35 l-21 36 42 45 c54 58 291
275 429 391 129 109 358 284 526 404 l125 89 -48 0 c-54 0 -61 -4 -319 -195
-369 -273 -715 -587 -931 -845 -101 -120 -181 -235 -189 -270 -4 -16 -8 -30
-10 -30 -3 0 -55 37 -117 82 -561 405 -1116 657 -1833 830 -115 27 -218 53
-228 57 -14 5 -4 16 50 58 38 28 103 84 146 124 l78 72 -6 -59 c-4 -44 -2 -64
9 -78 14 -17 19 -16 123 32 139 65 233 102 418 168 l150 53 -90 0 c-88 0 -93
-1 -260 -68z m3281 -880 c-102 -199 -296 -687 -346 -866 -12 -44 -24 -86 -26
-94 -3 -11 -7 -11 -19 -1 -20 17 -14 48 42 220 62 189 123 341 208 515 68 139
147 275 160 275 3 0 -6 -22 -19 -49z m-9856 -7571 c-16 -433 2 -367 -172 -611
l-149 -209 -27 20 c-15 11 -96 90 -181 174 l-154 154 58 91 c64 102 74 135 75
236 0 39 3 79 6 90 4 12 31 32 67 50 34 17 78 46 98 66 32 32 38 45 47 111 6
41 14 135 18 210 l7 136 24 -9 c76 -29 141 3 238 117 l50 58 3 -199 c2 -110
-2 -328 -8 -485z m-238 -1582 c-22 -179 -20 -472 5 -590 l20 -97 -34 29 c-41
37 -95 51 -155 41 l-46 -8 -42 99 c-40 94 -73 140 -114 164 -18 9 -12 20 65
127 46 64 127 177 179 251 l95 135 20 -19 c21 -20 21 -22 7 -132z"/>
<path d="M6104 10087 c-10 -28 3 -34 88 -41 130 -10 350 -72 553 -156 116 -48
409 -199 496 -255 108 -69 326 -229 461 -337 143 -115 391 -342 377 -346 -5
-2 -44 8 -86 22 -253 83 -649 154 -953 171 -119 6 -467 18 -490 16 -565 -42
-1037 -114 -1463 -224 -101 -27 -130 -31 -138 -21 -13 15 -39 7 -39 -12 0 -8
-44 -26 -117 -49 -397 -122 -772 -264 -849 -322 -17 -13 -57 -32 -89 -43 -123
-42 -497 -254 -764 -432 -386 -259 -837 -617 -1098 -871 -35 -34 -63 -56 -63
-48 0 27 115 363 182 531 87 218 172 395 272 570 92 160 262 417 341 515 260
324 572 600 903 799 42 26 62 43 60 54 -6 29 -34 24 -104 -18 -705 -427 -1236
-1115 -1582 -2050 -171 -463 -304 -1026 -357 -1510 -23 -204 -31 -645 -16
-865 6 -99 18 -295 27 -435 36 -618 119 -1105 236 -1385 17 -38 49 -127 73
-196 147 -424 418 -974 591 -1201 24 -31 44 -59 44 -62 0 -10 -139 62 -215
112 -89 57 -172 126 -236 197 -28 30 -56 55 -63 55 -6 0 -43 32 -81 70 -38 39
-75 70 -82 70 -34 0 -6 -45 78 -124 l91 -87 9 -82 c27 -242 70 -422 239 -1017
43 -151 82 -284 86 -295 14 -37 -40 21 -107 114 -170 238 -284 495 -394 884
-15 54 -37 74 -47 44 -6 -15 97 -352 146 -476 73 -187 246 -490 275 -483 7 1
10 -2 6 -8 -10 -17 69 -114 206 -251 l87 -87 -45 19 c-115 49 -212 117 -324
227 -71 69 -99 82 -99 48 0 -29 187 -191 295 -256 l108 -66 37 -109 c20 -61
59 -172 86 -247 l49 -138 56 0 c34 0 70 7 95 19 21 10 70 30 107 42 68 24 69
25 106 94 21 39 44 96 50 128 11 50 18 62 52 87 49 35 175 89 221 94 56 6 58
36 11 158 -23 57 -40 104 -39 105 0 1 76 -35 166 -80 146 -72 311 -136 420
-164 l35 -9 -48 -51 c-45 -48 -48 -54 -50 -109 0 -33 3 -91 7 -130 l9 -70 -63
-57 -63 -57 144 0 144 1 42 52 c94 118 247 303 263 320 16 17 28 9 264 -178
l248 -195 283 0 c204 0 286 3 291 12 4 7 3 8 -4 4 -7 -4 -12 -1 -12 8 0 28 23
30 45 3 l21 -27 639 0 c486 0 647 3 673 13 28 9 36 9 39 0 3 -9 27 -13 74 -13
56 0 67 3 63 15 -10 25 23 28 59 6 33 -20 48 -21 284 -21 l250 0 74 95 c40 52
78 94 84 92 29 -10 7 -57 -71 -155 l-27 -32 189 0 189 1 -60 52 c-131 115
-164 157 -121 157 19 0 67 -40 61 -51 -4 -5 0 -6 8 -3 13 5 154 -101 186 -139
7 -10 26 -17 41 -17 27 0 28 2 35 65 4 45 11 65 20 65 18 0 495 -97 566 -116
44 -11 129 -14 360 -14 l304 0 53 103 c29 56 57 109 62 117 20 34 181 423 223
540 78 216 159 506 214 763 8 35 15 42 128 106 66 38 119 74 117 81 -1 6 2 9
8 5 27 -17 398 277 387 308 -8 24 -27 15 -78 -34 -56 -53 -221 -182 -277 -214
-17 -10 -28 -23 -25 -28 3 -6 1 -7 -5 -4 -5 4 -56 -20 -111 -53 -107 -64 -441
-230 -461 -230 -7 0 10 17 37 37 83 63 103 81 103 88 0 5 80 87 178 184 189
187 226 229 344 386 80 107 100 139 93 149 -3 3 -2 4 2 1 18 -13 164 253 237
432 50 121 55 146 30 141 -10 -2 -34 -45 -63 -113 -26 -60 -68 -152 -94 -203
-26 -51 -45 -98 -41 -104 4 -6 3 -8 -3 -5 -6 4 -33 -31 -62 -76 -83 -132 -203
-293 -314 -419 -60 -69 -78 -82 -71 -50 8 38 34 337 44 510 l11 184 58 96
c111 184 176 337 226 528 23 89 26 120 28 304 2 179 -1 219 -21 317 -42 209
-76 295 -241 613 -94 181 -134 240 -164 240 -8 0 -21 -44 -35 -113 -33 -160
-92 -330 -171 -492 -92 -187 -107 -204 -75 -90 98 359 127 795 89 1345 -9 135
-15 264 -12 287 2 23 2 45 -1 48 -3 2 -6 17 -7 32 -6 97 -130 736 -191 986
-61 251 -90 328 -234 622 -152 309 -346 616 -611 970 -426 569 -861 987 -1408
1352 -148 100 -488 272 -662 335 -248 91 -539 146 -555 105z m956 -997 c184
-13 353 -35 505 -67 169 -34 328 -74 342 -85 6 -5 62 -22 124 -39 62 -17 124
-36 139 -44 72 -37 568 -628 514 -612 -42 13 -487 69 -687 87 -420 38 -812 48
-1117 30 -678 -41 -1600 -250 -2279 -516 -135 -53 -449 -204 -624 -300 -206
-113 -665 -399 -1057 -660 -569 -377 -1010 -684 -1168 -811 -24 -20 -44 -34
-46 -32 -13 18 78 533 138 784 l44 180 129 123 c70 68 189 176 263 240 74 64
137 120 140 123 13 16 300 236 415 318 608 436 1133 713 1725 910 644 215
1211 327 1880 374 111 8 488 6 620 -3z m121 -780 c429 1 1040 -47 1404 -111
33 -5 84 -14 113 -18 38 -6 58 -14 70 -31 257 -356 436 -657 596 -1006 123
-267 162 -375 192 -529 14 -77 35 -174 45 -215 10 -41 28 -147 40 -235 12 -88
27 -176 34 -195 7 -19 16 -66 20 -104 l7 -70 -84 75 c-45 41 -108 95 -138 119
-174 141 -697 606 -802 712 l-86 89 -7 -68 c-12 -137 -36 -282 -61 -379 -30
-118 -79 -274 -103 -327 l-17 -38 -13 93 c-37 265 -157 684 -307 1068 -35 91
-88 235 -118 320 -30 85 -58 163 -61 173 -6 15 1 17 71 17 164 0 504 -42 527
-64 7 -6 23 -11 37 -11 56 1 251 -57 417 -123 45 -19 53 -19 64 -6 18 22 -1
36 -106 77 -88 35 -324 107 -350 107 -7 0 -18 6 -24 14 -13 15 -59 27 -63 16
-2 -4 -57 1 -123 11 -66 11 -199 22 -295 25 -121 5 -180 11 -190 20 -24 21
-64 26 -91 12 -14 -7 -25 -17 -24 -23 0 -6 -45 -13 -105 -16 -133 -8 -305 -33
-465 -68 l-124 -27 -6 26 c-5 22 -10 26 -31 22 -21 -4 -25 -9 -22 -34 3 -29 1
-31 -62 -50 -104 -31 -198 -68 -222 -88 -19 -15 -21 -21 -10 -31 10 -11 18
-11 45 0 66 27 231 81 248 81 13 0 19 -21 33 -107 36 -233 67 -527 73 -699 l6
-180 -66 -87 c-37 -48 -75 -104 -86 -125 -11 -21 -27 -44 -35 -51 -20 -17 -21
-40 -1 -47 9 -4 35 12 66 40 29 26 65 56 81 67 l28 20 0 -45 c0 -58 -37 -311
-49 -334 -5 -9 -28 -95 -51 -190 -23 -95 -47 -189 -55 -210 l-14 -37 0 70 c-1
71 -5 96 -40 291 -44 237 -158 643 -206 734 -43 81 -83 57 -47 -28 29 -68 46
-325 32 -492 -20 -249 -87 -560 -168 -785 -71 -196 -174 -420 -235 -508 l-19
-28 -38 53 c-21 30 -88 137 -150 238 -62 102 -118 188 -124 192 -17 11 -40
-17 -31 -39 4 -10 10 -27 12 -37 8 -45 121 -225 210 -338 78 -98 86 -106 120
-113 31 -6 34 -4 74 57 22 35 65 113 94 173 182 375 297 813 312 1195 l6 154
24 -84 c36 -132 73 -315 87 -425 11 -93 10 -102 -8 -136 -23 -41 -16 -74 13
-66 18 4 20 -3 25 -67 4 -39 7 -96 9 -126 2 -50 4 -55 24 -54 18 0 21 -4 18
-20 -25 -104 -22 -145 8 -133 8 3 54 61 102 129 210 293 358 462 479 542 84
55 232 123 311 142 91 21 183 20 330 -6 203 -35 190 -28 204 -113 17 -105 22
-108 63 -30 33 62 39 68 65 65 45 -5 283 -87 393 -136 220 -97 447 -245 474
-310 38 -92 49 -179 53 -415 1 -130 7 -239 12 -244 18 -18 39 1 77 69 52 94
116 250 179 439 l53 159 8 -119 c13 -180 10 -712 -4 -855 -25 -242 -83 -521
-147 -711 -19 -56 -21 -70 -11 -85 8 -10 20 -15 29 -11 25 10 154 213 216 342
76 157 113 256 154 409 l32 125 108 -208 c127 -247 160 -325 192 -451 117
-472 41 -849 -265 -1307 -123 -186 -238 -328 -396 -493 -142 -146 -234 -227
-421 -367 -179 -134 -429 -287 -543 -333 -19 -7 -164 -78 -322 -156 -159 -78
-336 -161 -395 -184 -60 -23 -118 -52 -129 -65 -23 -25 -223 -519 -276 -680
-18 -55 -37 -103 -43 -107 -15 -11 -245 -64 -375 -87 -156 -28 -338 -48 -565
-61 -104 -7 -193 -14 -197 -17 -12 -7 -470 -5 -527 3 -50 6 -50 7 -59 51 -6
24 -8 52 -5 62 8 31 -118 254 -154 274 -5 2 -51 0 -103 -4 -181 -14 -860 -21
-1020 -9 -454 31 -719 102 -1055 283 -104 56 -375 233 -485 317 -154 117 -305
301 -435 532 -61 108 -155 308 -155 330 0 5 37 -11 83 -35 45 -25 111 -55 147
-68 36 -12 74 -31 86 -41 25 -22 43 -23 50 -3 4 9 -20 51 -62 108 -38 50 -82
111 -98 135 -16 23 -32 42 -36 42 -15 0 -149 236 -239 420 l-90 185 -16 175
c-21 232 -22 241 -47 248 -19 5 -20 10 -13 126 9 168 7 164 63 118 168 -138
439 -325 548 -378 83 -40 90 -41 104 -14 8 16 2 28 -36 76 -69 84 -192 277
-231 362 -19 40 -39 98 -46 127 -10 50 -9 61 22 152 81 241 287 567 523 828
l46 50 63 -30 c35 -16 66 -30 68 -32 2 -1 -15 -39 -37 -85 -72 -146 -87 -223
-86 -443 0 -157 4 -208 23 -294 41 -193 121 -356 230 -474 72 -77 146 -117
230 -124 53 -5 71 -1 158 33 130 51 406 189 518 259 97 61 173 128 211 187 52
81 70 293 39 470 -38 221 -171 484 -329 655 -136 147 -370 199 -564 127 -83
-31 -228 -131 -297 -206 l-55 -60 -25 56 c-14 31 -25 63 -25 70 0 25 113 117
185 152 137 66 364 102 522 83 101 -13 263 -53 333 -84 85 -38 367 -135 390
-135 41 0 20 38 -62 115 -46 43 -118 105 -161 138 -42 33 -76 65 -74 70 2 6
38 21 80 34 61 19 77 28 77 43 0 24 -24 37 -130 70 l-85 27 -36 99 c-21 54
-48 141 -62 192 -28 102 -28 102 44 77 24 -9 48 -14 55 -11 6 2 30 -32 54 -77
86 -164 197 -342 290 -465 101 -133 122 -154 140 -136 8 8 7 29 -5 74 -24 91
-52 255 -59 335 -12 143 -15 245 -8 245 4 0 17 -17 29 -38 137 -239 572 -661
860 -834 112 -68 148 -82 166 -63 14 13 29 112 42 270 9 109 23 549 18 563 -9
21 -42 14 -47 -10 -3 -13 -10 -147 -16 -298 -10 -276 -27 -470 -40 -470 -4 0
-45 24 -93 54 -342 215 -757 634 -902 914 -29 57 -36 60 -56 35 -23 -27 -17
-369 9 -508 11 -60 19 -111 17 -113 -5 -5 -113 153 -181 265 -77 128 -216 403
-263 523 -19 47 -42 103 -51 125 -24 54 -93 283 -129 429 -17 65 -32 121 -35
123 -6 6 -11 -15 -26 -104 -10 -56 -4 -186 15 -328 16 -114 58 -367 69 -415
33 -133 98 -365 131 -465 20 -61 32 -112 27 -117 -5 -5 -60 29 -128 77 -65 47
-132 93 -147 103 -84 51 -191 138 -263 214 -68 73 -188 228 -235 306 -16 25
-47 29 -55 7 -3 -8 -2 -41 4 -72 7 -42 7 -62 -1 -73 -6 -8 -7 -11 -2 -7 9 8
57 -139 52 -157 -2 -5 -49 60 -106 145 -112 168 -202 341 -256 489 -18 52 -52
146 -75 208 -23 63 -39 120 -37 127 7 17 195 112 332 169 166 67 286 105 434
136 114 23 136 31 142 48 11 29 3 31 -63 21 -200 -32 -485 -128 -724 -245 -77
-38 -147 -69 -157 -70 -10 -1 -28 -10 -40 -22 -12 -11 -80 -54 -151 -96 -144
-85 -216 -136 -386 -270 -63 -50 -127 -97 -142 -103 -16 -7 -28 -17 -28 -22 0
-5 -73 -83 -163 -173 -176 -176 -297 -319 -297 -349 0 -42 38 -18 110 69 87
105 469 494 479 488 4 -3 63 38 131 91 192 146 422 294 437 280 3 -3 11 -171
19 -372 7 -201 16 -391 19 -423 22 -214 77 -530 112 -652 31 -109 94 -286 113
-317 11 -18 16 -33 12 -33 -7 0 -168 95 -259 153 -95 60 -223 184 -297 287
-91 126 -193 336 -256 524 -22 67 -23 68 -36 45 -17 -31 -28 -87 -59 -289 -13
-91 -38 -253 -54 -360 -76 -492 -158 -1245 -182 -1668 -7 -122 -16 -216 -21
-209 -13 24 -97 277 -133 401 -19 65 -41 126 -49 135 -29 34 -100 391 -135
686 -24 196 -42 444 -52 730 -6 171 -15 310 -21 322 -11 23 -3 440 11 583 l6
65 170 128 c399 299 1307 908 1825 1222 80 49 157 99 172 111 43 35 531 277
705 350 552 230 1375 435 2053 513 96 11 189 25 205 30 17 5 37 7 45 4 8 -2
148 -4 311 -3z m597 -706 c31 -89 52 -219 64 -376 21 -289 -14 -583 -100 -843
-41 -127 -59 -166 -125 -280 l-41 -70 -17 115 c-29 200 -100 465 -216 815 -84
254 -206 563 -227 577 -14 9 -1 14 119 37 168 33 482 73 520 66 6 -1 16 -19
23 -41z m-694 -69 c-4 -8 11 -57 31 -107 103 -258 275 -771 275 -821 0 -11
-21 -16 -87 -22 -49 -3 -98 -9 -109 -12 -21 -4 -22 -1 -28 129 -12 229 -54
609 -87 775 -6 29 -8 57 -4 63 9 15 15 12 9 -5z m867 -225 c131 -302 217 -541
297 -827 l20 -73 -111 0 c-106 0 -316 -22 -337 -35 -6 -3 -10 -3 -10 2 0 9 26
120 41 176 l10 37 107 -4 c59 -2 137 -8 175 -12 40 -4 67 -3 67 2 0 6 -75 18
-167 28 -92 9 -170 19 -172 22 -2 2 1 35 7 73 33 200 34 509 2 706 -11 67 -12
80 -5 74 2 -3 36 -79 76 -169z m894 -838 c61 -54 110 -102 110 -107 0 -6 -32
-29 -72 -54 l-72 -44 -111 39 -111 39 6 30 c5 26 18 101 41 243 l5 33 47 -40
c26 -23 97 -85 157 -139z m-1399 -77 c13 -55 24 -108 24 -117 0 -10 -25 -32
-61 -53 -74 -46 -212 -147 -258 -189 l-33 -31 7 45 c4 25 15 112 24 193 l17
148 54 31 c68 37 170 78 189 75 9 -1 22 -37 37 -102z m1728 -216 c69 -62 125
-114 122 -116 -2 -2 -48 18 -102 45 -55 27 -121 57 -147 67 -26 10 -46 23 -43
29 3 6 10 28 17 49 7 20 15 37 19 37 4 0 64 -50 134 -111z m-6084 -89 c52
-155 141 -342 215 -456 31 -47 55 -88 53 -89 -2 -1 -39 -21 -83 -43 -44 -23
-109 -59 -145 -81 l-65 -39 -7 61 c-8 81 -28 562 -27 697 0 61 3 99 8 90 5 -8
28 -71 51 -140z m1133 -295 c15 -26 97 -214 97 -221 0 -3 -113 61 -129 72 -6
5 -39 175 -55 289 -9 61 -18 126 -21 145 -3 19 17 -30 43 -110 27 -80 56 -159
65 -175z m-616 -287 c56 -74 173 -196 227 -238 25 -19 45 -38 46 -42 0 -5 -46
-8 -103 -8 -78 0 -127 -6 -202 -25 -147 -38 -281 -83 -357 -121 -37 -19 -72
-34 -76 -34 -5 0 -20 53 -32 118 -12 64 -28 135 -35 157 -7 22 -10 44 -6 48 8
8 281 125 311 133 10 2 38 -28 80 -87 72 -100 111 -139 142 -139 17 0 19 5 15
33 -3 17 -18 70 -35 117 -16 47 -33 97 -36 113 -10 44 17 33 61 -25z m-1087
-367 c59 -115 146 -239 223 -318 l50 -52 -78 -83 c-43 -46 -98 -110 -122 -143
-24 -33 -52 -66 -61 -72 -9 -7 -47 -14 -86 -14 -107 -2 -130 -9 -134 -41 -3
-22 6 -34 50 -68 29 -23 54 -46 56 -50 1 -4 -19 -45 -46 -91 -67 -117 -162
-265 -162 -253 1 62 90 775 126 999 13 88 29 192 34 232 5 39 14 100 20 135 5
35 10 68 10 73 0 6 15 -26 33 -70 19 -44 57 -127 87 -184z m963 -952 c35 -44
1 -100 -87 -144 -60 -30 -126 -33 -149 -7 -30 33 -31 66 -1 101 64 76 193 104
237 50z m738 -65 c30 -8 71 -21 92 -27 31 -8 35 -12 20 -18 -30 -11 -181 -21
-186 -12 -2 4 -8 23 -12 41 -8 38 3 41 86 16z m252 -117 c33 -31 35 -37 42
-122 11 -128 1 -244 -26 -296 -48 -95 -187 -197 -437 -324 -197 -99 -358 -165
-403 -165 -116 0 -254 125 -347 314 -40 80 -39 110 2 202 31 69 73 99 271 199
183 93 173 90 187 57 23 -52 69 -112 106 -137 46 -32 122 -34 168 -6 68 41
114 141 114 247 l0 53 48 4 c26 2 91 4 144 5 96 2 97 2 131 -31z m-743 4 c0
-10 3 -32 6 -48 6 -29 4 -30 -73 -62 -43 -18 -116 -53 -163 -77 -46 -24 -86
-41 -88 -39 -9 9 134 138 210 189 90 60 108 66 108 37z m-1581 -1146 c0 -26
-2 -27 -9 -10 -5 11 -8 45 -8 75 l1 55 8 -45 c4 -25 8 -58 8 -75z m7857 -677
c-3 -46 -13 -148 -22 -228 l-16 -145 -60 -61 c-91 -93 -95 -94 -162 -44 l-55
42 36 56 c77 120 273 445 273 453 0 5 3 9 6 9 4 0 4 -37 0 -82z m-7680 -278
c66 -188 221 -462 354 -630 44 -55 80 -101 80 -103 0 -5 -108 9 -175 23 -33 7
-102 28 -154 48 -110 42 -103 30 -155 242 -64 261 -97 433 -97 505 0 44 -6 78
-15 93 -8 12 19 -6 60 -40 70 -58 77 -67 102 -138z m6804 -320 c-23 -34 -43
-60 -45 -58 -2 2 -5 18 -6 36 -3 29 1 36 41 62 24 16 46 27 48 25 2 -2 -15
-31 -38 -65z m-83 -115 c17 -12 28 -14 32 -6 7 11 107 -8 163 -30 32 -13 77
-97 102 -189 34 -124 28 -120 259 -183 183 -51 185 -53 148 -170 -32 -99 -160
-421 -216 -541 l-46 -99 -57 7 c-155 18 -210 65 -312 266 -24 47 -65 120 -93
162 -40 62 -55 78 -80 83 -70 15 -177 67 -206 101 -27 30 -80 171 -81 215 -1
7 -7 31 -14 51 -9 24 -10 38 -3 41 6 2 3 15 -6 34 -11 21 -26 32 -49 37 -17 3
-50 11 -72 17 l-40 11 75 32 c105 46 237 114 359 185 l105 60 3 -34 c2 -23 11
-39 29 -50z m671 -214 c67 -49 112 -90 111 -100 -1 -27 -25 -86 -35 -86 -5 1
-34 8 -64 17 -30 9 -111 31 -180 48 l-126 32 -16 61 c-14 55 -14 64 -1 84 11
17 25 23 52 24 20 0 54 6 76 13 29 9 44 9 56 2 8 -6 65 -49 127 -95z m-1282
-20 c9 -9 48 -22 123 -41 27 -7 40 -15 32 -19 -13 -9 5 -109 40 -223 l21 -67
-57 -80 c-31 -45 -59 -81 -62 -81 -3 0 -73 53 -157 118 -83 64 -186 143 -228
176 l-78 59 168 83 c175 87 182 89 198 75z m-6005 -56 c91 -33 253 -65 326
-65 57 0 59 -1 133 -65 77 -67 98 -82 281 -201 l107 -69 49 -131 49 -131 -55
-18 c-71 -22 -183 -80 -214 -111 -24 -23 -42 -78 -68 -196 -7 -36 -17 -58 -26
-58 -30 0 -204 -74 -227 -96 l-23 -24 -80 217 c-44 120 -80 219 -79 220 1 1
49 -16 107 -39 142 -56 224 -61 217 -15 -2 17 -14 25 -50 33 -85 22 -190 84
-301 178 l-47 41 -76 235 c-42 129 -82 254 -89 278 -8 23 -11 42 -8 42 3 0 37
-11 74 -25z m5629 -595 c96 -74 177 -137 180 -140 3 -3 17 -13 33 -23 15 -10
27 -22 27 -27 0 -5 -28 -49 -61 -96 l-62 -86 -17 48 c-37 106 -97 185 -153
203 -43 14 -253 51 -289 51 -16 0 -28 5 -28 13 0 6 19 59 41 117 23 58 45 116
50 128 l9 24 48 -39 c26 -22 126 -99 222 -173z m988 -43 c76 -159 144 -255
205 -291 25 -15 80 -33 123 -41 43 -9 79 -17 81 -19 3 -2 -12 -36 -32 -75 -32
-65 -37 -70 -54 -59 -10 7 -133 105 -274 217 l-256 203 67 99 c37 54 69 98 72
98 3 0 33 -59 68 -132z m-3377 -220 c8 -13 6 -19 -8 -24 -175 -60 -298 -119
-310 -148 -3 -8 -8 -15 -12 -15 -4 0 -56 40 -115 89 -58 50 -130 107 -159 128
l-52 38 110 6 c61 4 185 7 276 8 136 1 169 4 179 16 11 14 18 9 47 -32 19 -26
39 -56 44 -66z m2985 -203 c19 -15 33 -29 30 -31 -2 -2 -24 1 -50 8 -40 10
-44 13 -35 30 13 24 14 24 55 -7z"/>
<path d="M5100 7889 c0 -5 5 -7 10 -4 6 3 10 8 10 11 0 2 -4 4 -10 4 -5 0 -10
-5 -10 -11z"/>
<path d="M7716 5904 c-196 -47 -357 -216 -392 -412 -38 -215 1 -513 95 -732
61 -142 177 -299 259 -351 91 -58 251 -69 548 -39 355 36 484 76 544 169 68
108 74 132 74 301 1 138 -2 166 -26 252 -55 198 -193 440 -327 576 -126 127
-257 200 -416 233 -107 22 -274 24 -359 3z m-48 -440 c28 -18 30 -73 4 -97
-49 -44 -184 -79 -246 -63 -60 15 -49 108 16 142 45 24 136 44 173 37 17 -3
40 -11 53 -19z m727 -249 c48 -14 99 -32 114 -41 l26 -15 -35 7 c-19 4 -111 8
-205 9 l-169 3 -12 34 c-7 18 -13 35 -13 38 -2 14 215 -12 294 -35z m-671
-131 c6 -19 -1 -24 -56 -44 -35 -12 -92 -36 -127 -52 -34 -16 -65 -27 -68 -25
-8 9 121 139 172 173 l50 34 11 -33 c6 -17 14 -41 18 -53z m713 41 c80 -13
170 -33 224 -50 9 -3 38 -32 64 -65 26 -33 51 -57 55 -55 14 9 22 -130 11
-206 -21 -151 -71 -219 -193 -262 -107 -38 -413 -79 -603 -80 -236 -3 -300 22
-396 152 -50 66 -154 265 -164 311 -6 27 -13 23 185 110 131 58 121 58 164 -4
55 -80 124 -126 187 -126 17 0 55 12 86 26 75 36 98 85 90 191 l-5 73 101 0
c56 0 143 -7 194 -15z"/>
<path d="M9180 4665 c-7 -8 -19 -15 -26 -15 -8 0 -14 -9 -14 -20 0 -15 7 -20
28 -20 16 0 66 -9 111 -21 68 -17 85 -19 92 -8 12 19 -9 39 -66 64 -74 33
-109 39 -125 20z"/>
<path d="M7412 3223 c-16 -21 -36 -52 -45 -69 -33 -65 -192 -189 -310 -244
-109 -51 -294 -102 -378 -105 -66 -2 -82 -6 -120 -32 -125 -86 -277 -139 -459
-162 -136 -17 -190 -15 -283 8 -101 26 -132 25 -132 -4 0 -76 332 -87 593 -19
100 26 217 76 296 126 41 27 59 32 120 34 134 4 382 93 518 185 74 51 213 186
253 246 48 74 1 105 -53 36z"/>
<path d="M3131 2910 c-39 -9 -56 -29 -102 -113 -30 -57 -33 -87 -7 -87 8 0 40
27 73 60 33 34 82 75 108 92 26 17 46 36 44 42 -4 14 -70 17 -116 6z"/>
<path d="M146 10050 c-56 -17 -96 -73 -96 -134 0 -26 7 -40 31 -60 17 -14 37
-26 44 -26 20 0 44 -38 38 -61 -7 -26 -41 -39 -99 -39 -62 0 -54 -24 9 -28 85
-6 143 48 115 106 -7 14 -33 38 -58 52 -52 30 -61 60 -35 110 26 50 115 78
115 36 0 -20 -48 -56 -83 -63 -26 -5 -34 -29 -9 -27 7 1 21 2 31 3 25 1 91 63
91 85 0 19 -35 56 -52 55 -7 0 -26 -5 -42 -9z"/>
<path d="M805 9960 c-10 -16 -39 -239 -32 -246 13 -14 27 10 27 47 0 33 4 41
24 49 57 21 79 107 37 142 -26 20 -47 23 -56 8z m43 -32 c19 -19 14 -45 -14
-75 l-26 -28 6 34 c3 18 6 44 6 57 0 26 10 30 28 12z"/>
<path d="M951 9852 c-14 -108 -14 -142 -1 -142 10 0 14 20 30 135 13 91 12 95
-4 95 -9 0 -17 -26 -25 -88z"/>
<path d="M402 9905 c-29 -24 -72 -98 -72 -124 0 -6 11 -23 25 -36 44 -45 148
-26 174 32 13 28 0 68 -28 82 -26 14 -31 14 -31 -4 0 -8 4 -15 10 -15 5 0 14
-9 21 -21 16 -31 -22 -69 -71 -69 -50 0 -73 19 -65 52 8 30 61 98 78 98 6 0
-2 -13 -17 -29 -20 -21 -24 -31 -15 -37 15 -9 71 54 67 76 -5 25 -43 23 -76
-5z"/>
<path d="M245 9868 c-12 -36 -33 -144 -29 -150 12 -19 23 -4 35 48 8 30 19 56
24 57 6 1 11 -22 13 -50 4 -77 32 -66 32 12 0 24 -9 43 -30 65 -33 33 -39 36
-45 18z"/>
<path d="M890 9870 c0 -5 7 -10 15 -10 8 0 15 5 15 10 0 6 -7 10 -15 10 -8 0
-15 -4 -15 -10z"/>
<path d="M1054 9846 c-95 -42 -78 -141 23 -134 28 2 48 8 51 17 3 10 -3 12
-25 7 -16 -4 -40 -2 -54 3 l-24 10 26 0 c61 2 105 76 60 101 -23 12 -19 12
-57 -4z m30 -53 c-20 -15 -54 -18 -54 -4 0 21 61 46 69 27 2 -5 -4 -15 -15
-23z"/>
<path d="M567 9843 c-10 -9 -8 -58 3 -87 11 -29 37 -35 46 -11 6 14 8 14 18
-1 21 -27 50 -13 66 33 11 32 11 46 3 54 -9 9 -14 1 -23 -30 -13 -51 -28 -53
-32 -4 -4 46 -26 55 -34 14 -10 -47 -24 -48 -24 -2 0 38 -8 50 -23 34z"/>
<path d="M886 9821 c-13 -20 -19 -101 -8 -101 11 0 16 12 27 67 6 30 -7 53
-19 34z"/>
<path d="M75 7476 c-60 -38 -70 -48 -73 -76 l-3 -32 43 26 c24 15 64 39 90 54
48 27 63 46 52 63 -10 17 -39 8 -109 -35z"/>
<path d="M10730 7183 c0 -10 16 -58 35 -108 l34 -90 1 73 c0 86 -19 142 -49
142 -13 0 -21 -6 -21 -17z"/>
<path d="M0 4307 c0 -24 3 -26 68 -32 37 -4 70 -7 75 -8 4 -1 -12 -30 -35 -65
-42 -61 -48 -64 -90 -47 -15 6 -18 2 -18 -23 0 -17 6 -32 13 -35 9 -3 9 -9 -1
-29 -7 -13 -12 -42 -10 -63 l3 -39 112 162 c112 161 126 193 80 190 -12 0 -61
3 -109 7 l-88 8 0 -26z"/>
<path d="M370 4011 c-47 -32 -104 -69 -127 -82 -23 -13 -88 -51 -143 -84
l-100 -60 0 -45 c0 -46 4 -51 84 -102 7 -5 0 -18 -18 -37 -24 -25 -27 -33 -16
-46 18 -22 50 -19 78 8 16 14 23 17 20 7 -3 -9 -11 -41 -17 -72 -11 -53 -14
-57 -71 -92 -58 -36 -60 -39 -60 -80 l0 -43 42 39 c46 43 55 46 60 21 5 -29
74 105 97 191 16 59 29 84 51 103 17 13 30 33 30 43 0 31 65 77 222 155 196
97 189 92 181 111 -10 26 -59 12 -205 -59 -155 -75 -248 -140 -280 -197 -21
-36 -39 -52 -37 -32 0 4 17 51 37 106 l37 98 97 62 c131 82 164 112 148 131
-7 8 -15 15 -19 15 -3 0 -44 -27 -91 -59z"/>
<path d="M10055 1208 c-119 -383 -274 -704 -515 -1063 -49 -74 -90 -137 -90
-140 0 -4 15 -5 33 -3 29 3 39 14 102 110 84 129 98 134 175 65 l47 -42 -33
-67 -34 -68 34 0 c33 0 34 1 84 113 106 233 174 451 206 657 24 146 48 401 41
427 -6 25 -43 33 -50 11z m-29 -315 c-15 -106 -17 -111 -43 -116 -19 -3 -23
-1 -18 12 28 76 59 151 63 151 2 0 1 -21 -2 -47z m-41 -244 c-18 -91 -120
-402 -141 -435 -13 -19 -20 -22 -35 -13 -10 5 -19 6 -19 3 0 -4 -14 11 -32 34
-18 23 -38 42 -45 42 -7 0 -13 2 -13 5 0 3 25 49 56 102 30 53 82 149 115 214
55 111 60 118 91 121 18 2 34 3 36 2 1 -1 -4 -35 -13 -75z"/>
<path d="M852 893 c-10 -18 -38 -199 -67 -433 -9 -69 -19 -200 -22 -292 l-6
-168 31 0 32 0 0 106 c0 101 16 335 25 362 4 10 10 8 24 -5 15 -14 24 -47 36
-128 16 -105 49 -280 61 -317 3 -12 16 -18 35 -18 24 0 29 4 25 18 -37 120
-116 660 -116 799 0 66 -38 114 -58 76z"/>
<path d="M2284 467 c-3 -8 1 -36 10 -63 8 -27 34 -129 57 -226 43 -178 43
-178 71 -178 15 0 28 1 28 3 0 1 -14 53 -30 116 -17 63 -29 115 -27 117 1 2
34 -49 72 -113 39 -63 75 -117 82 -120 6 -3 21 -3 32 -1 18 3 9 22 -82 173
-57 94 -119 199 -139 235 -35 64 -63 85 -74 57z"/>
</g>
</svg>
